<?xml version="1.0" encoding="UTF-8"?> <svg xmlns="http://www.w3.org/2000/svg" width="910" height="634" viewBox="0 0 910 634" fill="none"><style> svg { height: 100vh; display: flex; align-items: center; justify-content: center; margin: 0 auto; } #Vector_27 { animation: Vector_27 5s infinite linear; transform-origin: center; transform-box: fill-box; } @keyframes Vector_27 { 0% { transform: rotate(0deg); } 100% { transform: rotate(360deg); } } #Vector_28 { animation: Vector_28 5s infinite linear; transform-origin: center; transform-box: fill-box; } @keyframes Vector_28 { 0% { transform: rotate(0deg); } 100% { transform: rotate(360deg); } } #Vector_56 { animation: Vector_56 5s infinite linear; transform-origin: center; transform-box: fill-box; } @keyframes Vector_56 { 0% { transform: rotate(0deg); } 100% { transform: rotate(-360deg); } } #native-logo { animation: native-logo 10s infinite linear; transform-origin: center; transform-box: fill-box; } @keyframes native-logo { 0% { transform: scale(0); } 25% { transform: scale(0.5); } 50% { transform: scale(1); } 75% { transform: scale(0.5): } 100% { transform: scale(0); } } #plant01 { animation: plant01 10s infinite linear; transform-origin: center; transform-box: fill-box; } @keyframes plant01 { 0% { transform: rotateZ(0deg); } 25% { transform: rotateZ(-5deg); } 50% { transform: rotateZ(0deg); } 75% { transform: rotateZ(5deg); } 100% { transform: rotateZ(0deg); } } #head01 { animation: head01 10s infinite linear; transform-origin: center; transform-box: fill-box; } @keyframes head01 { 0% { transform: rotateZ(0deg); } 25% { transform: rotateZ(-5deg); } 50% { transform: rotateZ(0deg); } 75% { transform: rotateZ(5deg); } 100% { transform: rotateZ(0deg); } } #head02 { animation: head02 10s infinite linear; transform-origin: center; transform-box: fill-box; } @keyframes head02 { 0% { transform: rotateZ(0deg); } 25% { transform: rotateZ(-5deg); } 50% { transform: rotateZ(0deg); } 75% { transform: rotateZ(5deg); } 100% { transform: rotateZ(0deg); } } #Group_40 { animation: Group_40 10s infinite linear; transform-origin: center; transform-box: fill-box; } @keyframes Group_40 { 0% { transform: rotateZ(0deg); } 25% { transform: rotateZ(-5deg); } 50% { transform: rotateZ(0deg); } 75% { transform: rotateZ(5deg); } 100% { transform: rotateZ(0deg); } } #Group_139 { animation: Group_139 10s infinite linear; transform-origin: center; transform-box: fill-box; } @keyframes Group_139 { 0% { transform: rotateZ(0deg); } 25% { transform: rotateZ(-5deg); } 50% { transform: rotateZ(0deg); } 75% { transform: rotateZ(5deg); } 100% { transform: rotateZ(0deg); } } </style><g id="Group"><g id="Group_2"><g id="Group_3"><g id="Group_4"><path id="Vector" fill-rule="evenodd" clip-rule="evenodd" d="M759.94 232.94C744.11 243.13 735.14 257.22 733.07 275.21C760.87 302.8 773.53 326.19 771.08 345.29C739.9 305.04 711.76 299.9 695.34 317.97C702.55 331.01 701.83 371.22 696.2 388.74C686.3 419.71 689.61 449.72 711.58 464.89C714.79 478.2 719.34 485.79 725.27 487.58C712.85 522 701.23 557.11 690.44 592.95C694.1 595.81 699.93 596.64 703.41 595.12C707.31 581.12 710.1 571.22 712.27 564.63C719.69 538.56 727.2 513.41 734.93 489.17C736.45 489.31 737.97 489.31 739.45 489.31C768.56 488.62 761.08 469.13 787.7 468.69C804.05 468.38 820.88 457.72 826.67 446.48C811.22 438.27 791.59 428.89 769.9 428.89C783.63 415.65 805.56 420.89 834.88 430.2C850.33 410.27 866.06 415.3 866.13 379.64C866.2 329.91 900.14 322.42 900.34 262.58C885.96 253.85 865.37 250.72 838.53 253.18C852.33 239.21 874.06 236.42 903.79 244.82C900.65 226.7 904.79 204.8 909.51 196C899.82 185.81 888.47 183.74 875.47 189.79C882.23 181.96 889.82 178.17 898.2 178.43C899.2 170.82 897.54 161.81 893.2 151.37C883.1 149.73 871.54 149.89 858.54 151.82C863.44 156.53 863.99 163.46 860.26 172.64C855.02 163.52 845.6 159.03 832.01 159.21C822.87 193.06 789.79 201.32 786.52 216.01C801.49 235.15 808.8 254.33 808.38 273.56C793.09 254.48 776.88 240.94 759.94 232.94Z" fill="#B0C2E4"></path></g><g id="Group_5"><path id="Vector_2" fill-rule="evenodd" clip-rule="evenodd" d="M690.45 592.96C701.25 557.13 712.87 522.02 725.28 487.59C770.94 357.36 832.89 225.57 875.17 173.46C814.78 264.49 760.46 394.88 712.28 564.64C710.11 571.23 707.31 581.13 703.42 595.13C699.93 596.65 694.1 595.82 690.45 592.96Z" fill="#9DB2D9"></path></g><g id="Group_6"><path id="Vector_3" fill-rule="evenodd" clip-rule="evenodd" d="M827.02 155.94C836.92 174.96 837.85 193.95 829.74 212.86C786.66 224.48 760.93 240.45 752.55 260.75C806.11 238.54 836.84 249.31 842.88 276.51C828.39 285.3 806.46 325.49 802.08 345.97C794.39 382.18 774.15 409.98 743.86 412.6C733.17 423.98 724.37 428.88 717.55 427.29C710.38 468.37 702.03 509.65 692.48 551.18C687.27 551.94 680.99 549.46 678.44 546.01C682.47 529.94 685.34 518.62 686.85 510.9C694.27 480.89 700.99 451.75 707.06 423.44C705.51 422.68 703.99 421.89 702.51 420.99C674.13 403.92 692.51 388.85 666.47 373.36C650.43 363.84 639.81 343.84 640.43 329.42C660.37 330 685.06 331.83 706.51 344.08C700.41 323.21 675.78 316.04 641.53 308.66C637.5 280.24 619.11 276.34 639.19 241.03C667.19 191.81 637.88 165.27 671.44 105.99C690.58 105.47 712.72 113.99 737.83 131.58C732.1 109.99 712.17 94.95 678.1 86.49C691.41 70.33 699.69 46.33 699.97 34.96C715.28 30.34 727.7 34.72 737.15 48.03C734.87 36.46 729.49 28.44 721.08 23.97C724.39 15.88 731.12 7.90003 741.29 0.0300293C752.19 4.10003 763.57 10.77 775.33 20.03C767.85 21.93 763.36 28.46 761.88 39.65C772.19 33.58 784.06 34.46 797.37 42.31C787.33 80.96 815.34 107.79 810.27 124.17C784.68 134.62 766.61 149.48 756.19 168.71C782.12 158.53 805.71 154.27 827.02 155.94Z" fill="#C4D1EB"></path></g><g id="Group_7"><path id="Vector_4" fill-rule="evenodd" clip-rule="evenodd" d="M692.48 551.19C702.03 509.66 710.38 468.38 717.55 427.3C745.9 272.72 759.01 107.44 746.66 32.07C755.01 156.18 735.07 315.76 686.86 510.9C685.34 518.63 682.48 529.94 678.45 546.01C680.99 549.47 687.27 551.95 692.48 551.19Z" fill="#B0C2E4"></path></g><g id="Group_8"><path id="Vector_5" fill-rule="evenodd" clip-rule="evenodd" d="M664.92 500.77L766.25 519.67C770.8 520.53 773.84 524.95 773.01 529.5L768.66 552.78C767.8 557.33 763.39 560.37 758.83 559.47L657.53 540.57C652.98 539.74 649.94 535.33 650.77 530.77L655.11 507.52C655.99 502.98 660.41 499.94 664.92 500.77Z" fill="#B0C2E4"></path></g><g id="Group_9"><path id="Vector_6" fill-rule="evenodd" clip-rule="evenodd" d="M757.94 559.33L658.44 540.78V550.36L754.46 568.3L757.94 559.33Z" fill="#9DB2D9"></path></g></g><g id="Group_10"><path id="Vector_7" fill-rule="evenodd" clip-rule="evenodd" d="M754.39 568.3L658.78 550.47L658.96 601.65L735.8 615.96L754.39 568.3Z" fill="#B0C2E4"></path></g></g><g id="Group_11"><path id="Vector_8" fill-rule="evenodd" clip-rule="evenodd" d="M410.49 633.97C508.23 633.97 587.94 623.69 587.94 611.07C587.94 598.45 508.24 588.17 410.49 588.17C312.78 588.17 233.04 598.45 233.04 611.07C233.05 623.69 312.79 633.97 410.49 633.97Z" fill="#C4D1EB"></path></g><g id="Group_12"><g id="Group_13"><path id="Vector_9" fill-rule="evenodd" clip-rule="evenodd" d="M97 592.92C143.18 592.92 180.83 586.47 180.83 578.54C180.83 570.64 143.19 564.16 97 564.16C50.82 564.16 13.14 570.65 13.14 578.54C13.14 586.47 50.82 592.92 97 592.92Z" fill="#B0C2E4"></path></g><g id="Group_14"><g id="plant01"><g id="Group_16"><path id="Vector_11" fill-rule="evenodd" clip-rule="evenodd" d="M101.31 367.5C99.95 365.71 98.07 364.4 96.19 363.22C95.69 362.91 94.97 363.12 94.69 363.63C93.24 366.35 91.9 369.11 90.22 371.7C89.68 372.56 88.89 373.7 88.2 374.19C88.15 374.22 87.98 374.33 87.91 374.36C87.89 374.33 87.89 374.33 87.88 374.33C87.74 374.12 87.66 373.92 87.59 373.64C86.3 369.67 87.87 365.43 86.85 361.43C86.3 359.29 84.95 357.08 83.42 355.5C81.76 353.84 79.54 353.09 78.51 350.81C78.35 350.46 78.08 350.29 77.77 350.26H77.56C77.2 350.29 76.8 350.5 76.61 350.81C74.2 354.26 70.85 357.81 70.21 362.12C69.64 365.95 71.71 369.16 73.92 372.05C74.99 373.43 76.04 374.88 76.87 376.43C77.34 377.29 78.11 378.85 77.28 379.71C76.42 380.57 75.09 379.02 74.4 378.3C73 376.82 71.81 375.2 70.59 373.57C68.57 370.91 65.38 366.88 61.59 367.6C59.9 367.91 59.23 369.64 59.14 371.15C59 373.57 60.17 376.12 61.35 378.12C64.02 382.67 69.44 384.02 72.92 387.71C73.73 388.54 75.92 391.44 74.66 392.61C74.23 393.02 73.21 392.89 72.68 392.82C71.4 392.61 70.01 392.16 68.97 391.37C65.06 388.34 63.62 383.06 59.5 380.2C57.71 378.96 54.91 378.16 52.76 378.68C50.92 379.13 50.07 380.85 49.98 382.61C49.88 384.71 50.84 386.89 51.91 388.68C53.15 390.68 54.84 392.41 56.91 393.58C61.07 395.96 66.31 396.27 69.07 400.62C69.45 401.17 69.86 401.96 69.67 402.69C69.53 403.24 68.72 403.45 68.26 403.52C66.14 404 63.35 403.21 61.48 402.21C59.22 401.04 57.56 398.83 55.84 397.04C54.01 395.11 51.98 393.56 49.41 392.76C47.55 392.21 45.25 392.28 44.06 394.04C42.96 395.63 43.16 397.8 43.63 399.56C44.22 401.9 45.49 404.08 47.08 405.91C48.77 407.88 51.46 408.98 53.86 409.81C56.34 410.64 58.95 411.16 61.41 412.09C62.06 412.33 62.56 412.51 63.29 412.57C64.07 412.64 64.82 412.57 65.57 412.78C66.21 412.92 65.78 413.61 65.57 414.06C65.05 415.16 63.42 415.13 62.38 415.2C61.4 415.27 60.45 415.54 59.47 415.54C58.35 415.54 57.23 415.33 56.12 415.13C53.91 414.82 51.6 414.44 49.43 415.1C47.33 415.76 45.84 417.69 45.46 419.83C44.67 424.31 49.65 427 53.34 427.56C55.7 427.94 57.86 427.42 59.93 426.25C62.5 424.8 64.52 422.7 67.48 422.35C67.67 423.52 67.25 424.46 66.2 425.35C64.73 426.59 62.73 427.25 60.99 427.9C57.54 429.14 52.51 430.31 50.66 433.87C50.44 434.32 50.49 434.87 50.85 435.22C52.47 436.77 54.37 437.98 56.66 438.19C58.56 438.33 60.42 437.43 61.97 436.4C64.71 434.61 67.09 431.74 70.2 430.47C69.77 431.23 69.06 431.78 68.18 432.47C66.64 433.64 65.83 435.33 65.42 437.2C64.76 440.06 65.75 443.13 69.09 443.17C70.92 443.17 72.75 442.27 74.26 441.34C76 440.27 77.4 438.75 78.49 437.06C79.83 434.96 80.58 432.54 80.99 430.02C83.78 435.47 89.85 441.16 95.58 436.47C100.48 432.44 92.42 429.37 89.23 426.19C89.87 426.43 90.45 426.74 91.04 427.05C92.7 427.91 94.32 428.84 96.04 429.57C99.28 430.88 102.9 430.74 104.85 427.43C106.51 424.53 103.06 423.22 100.92 422.57C99.2 422.05 95.95 421.5 94.69 419.78C98.97 420.23 103.73 420.75 107.4 418.26C109.07 417.16 111.07 415.02 111.28 412.91C111.44 411.19 109.59 410.6 108.25 410.46C104.61 410.08 101.06 411.7 97.4 411.56C96.52 411.56 95.66 411.42 94.8 411.25C94.47 411.18 94.15 411.08 93.85 410.94C93.73 410.91 93.61 410.8 93.54 410.73C93.56 410.7 93.59 410.63 93.64 410.59C93.97 410.17 94.38 409.9 94.79 409.62C95.72 409 96.71 408.66 97.83 408.55C99.95 408.31 102.07 408.58 104.18 408.24C106.58 407.83 108.51 406.45 110.08 404.65C111.48 403.06 112.82 401.06 113.05 398.92C113.28 396.71 111.93 395.2 109.95 394.44C104.41 392.3 101.17 398.03 97.21 400.65C96.16 401.34 94.92 401.79 93.73 402.17C93.25 402.31 91.82 402.79 91.33 402.45C91.05 402.21 91.98 400.69 92.17 400.42C92.96 399.14 93.98 398.25 95.29 397.49C98.58 395.56 102.62 395.01 105.24 392.01C106.95 390.04 108.29 386.73 106.62 384.32C104.84 381.77 100.89 382.46 98.65 383.97C95.84 385.8 94.42 389.56 91.05 390.46C90.76 388.87 91.38 387.39 92.46 385.98C94.03 383.91 96.06 382.19 97.94 380.39C99.73 378.63 101.58 376.73 102.51 374.39C103.47 371.92 102.87 369.5 101.31 367.5Z" fill="#9DB2D9"></path></g><g id="Group_17"><path id="Vector_12" fill-rule="evenodd" clip-rule="evenodd" d="M184.86 444.62C185.38 442.45 185.31 440.14 185.03 437.96C184.96 437.37 184.34 436.93 183.79 437.03C180.75 437.58 177.75 438.24 174.68 438.55C173.68 438.62 172.3 438.72 171.51 438.48C171.44 438.45 171.23 438.38 171.17 438.34C171.17 438.34 171.17 438.31 171.17 438.27C171.27 438.06 171.38 437.86 171.51 437.65C173.86 434.17 178.2 432.75 180.68 429.47C181.99 427.71 182.92 425.3 183.16 423.16C183.51 420.81 182.71 418.57 183.85 416.33C184.26 415.54 183.44 414.81 182.68 414.88C178.47 415.09 173.61 414.67 169.85 416.85C166.47 418.78 165.23 422.37 164.33 425.92C163.92 427.61 163.43 429.3 162.71 430.96C162.33 431.82 161.57 433.41 160.4 433.27C159.16 433.17 159.57 431.13 159.71 430.13C159.99 428.13 160.54 426.2 161.09 424.23C161.92 421.02 163.09 415.99 160.19 413.47C158.88 412.33 157.12 412.88 155.88 413.75C153.91 415.13 152.6 417.65 151.76 419.82C149.85 424.75 152.16 429.79 151.42 434.82C151.25 435.96 150.35 439.48 148.63 439.23C148.02 439.13 147.51 438.26 147.25 437.78C146.61 436.68 146.13 435.3 146.09 433.99C146.06 429.02 149.32 424.64 149.02 419.64C148.88 417.43 147.78 414.78 146.02 413.36C144.55 412.22 142.66 412.6 141.23 413.63C139.5 414.87 138.4 416.94 137.68 418.87C136.83 421.14 136.53 423.49 136.89 425.84C137.61 430.6 140.61 434.88 138.92 439.77C138.68 440.42 138.32 441.22 137.64 441.49C137.11 441.76 136.49 441.21 136.1 440.94C134.41 439.56 133.31 436.87 132.93 434.8C132.48 432.25 133.17 429.63 133.51 427.14C133.89 424.52 133.87 421.93 132.89 419.45C132.18 417.62 130.7 415.9 128.58 416.04C126.65 416.18 125.1 417.66 123.99 419.11C122.51 421.04 121.58 423.39 121.13 425.76C120.63 428.31 121.42 431.07 122.27 433.49C123.15 435.98 124.38 438.32 125.17 440.84C125.38 441.5 125.55 442.01 125.94 442.6C126.37 443.22 126.89 443.81 127.18 444.53C127.46 445.12 126.66 445.22 126.18 445.29C124.99 445.6 124.03 444.29 123.32 443.5C122.65 442.81 121.87 442.19 121.25 441.43C120.56 440.53 120.03 439.53 119.47 438.57C118.37 436.64 117.23 434.57 115.38 433.29C113.57 432.02 111.09 432.08 109.21 433.08C105.23 435.22 106.16 440.81 108 444.05C109.19 446.16 110.91 447.5 113.12 448.43C115.84 449.57 118.74 449.84 120.86 451.95C120.05 452.81 119.03 453.09 117.69 452.81C115.85 452.43 114.09 451.26 112.48 450.26C109.34 448.36 105.34 445.12 101.39 445.85C100.91 445.99 100.51 446.33 100.48 446.85C100.26 449.09 100.46 451.33 101.74 453.23C102.79 454.82 104.64 455.75 106.4 456.33C109.56 457.36 113.26 457.47 116.19 459.09C115.29 459.23 114.43 459.02 113.38 458.74C111.48 458.26 109.67 458.67 107.93 459.5C105.29 460.74 103.48 463.43 105.53 466.05C106.65 467.5 108.51 468.4 110.17 469.02C112.07 469.74 114.12 469.92 116.14 469.71C118.62 469.43 121 468.54 123.21 467.3C120.66 472.89 119.95 481.17 127.19 482.75C133.38 484.1 130.81 475.85 131.33 471.4C131.52 472.06 131.64 472.74 131.76 473.37C132.12 475.2 132.38 477.06 132.9 478.85C133.87 482.2 136.21 484.95 140.02 484.44C143.3 483.99 142.21 480.4 141.4 478.37C140.74 476.68 139.16 473.78 139.76 471.71C142.04 475.37 144.55 479.44 148.78 480.82C150.69 481.44 153.63 481.65 155.4 480.51C156.85 479.58 156.18 477.75 155.45 476.61C153.49 473.51 150.02 471.71 147.85 468.78C147.33 468.09 146.87 467.33 146.49 466.54C146.35 466.26 146.21 465.92 146.13 465.64C146.11 465.5 146.11 465.33 146.11 465.23C146.16 465.23 146.23 465.23 146.3 465.23C146.8 465.23 147.28 465.37 147.77 465.57C148.82 465.92 149.72 466.47 150.49 467.23C151.97 468.78 153.08 470.61 154.68 472.06C156.47 473.65 158.73 474.34 161.11 474.47C163.21 474.61 165.63 474.4 167.46 473.23C169.36 472.06 169.7 470.06 169.08 468.06C167.29 462.4 160.8 463.37 156.3 461.89C155.11 461.48 153.97 460.79 152.95 460.06C152.52 459.78 151.26 458.96 151.26 458.34C151.26 458 153.02 457.79 153.36 457.79C154.88 457.58 156.21 457.86 157.62 458.41C161.14 459.86 164.11 462.62 168.04 462.82C170.66 462.96 174.11 461.96 174.94 459.17C175.84 456.2 172.87 453.51 170.32 452.68C167.15 451.61 163.29 452.82 160.49 450.75C161.56 449.51 163.11 449.09 164.9 449.06C167.49 449.03 170.11 449.54 172.69 449.92C175.14 450.23 177.76 450.54 180.21 449.78C182.73 449.07 184.28 447.07 184.86 444.62Z" fill="#9DB2D9"></path></g><g id="Group_18"><path id="Vector_13" fill-rule="evenodd" clip-rule="evenodd" d="M37.37 382.06C35.28 381.23 33.01 381.09 30.78 381.03C30.19 381.03 29.68 381.58 29.71 382.17C29.85 385.24 30.14 388.31 30.04 391.38C30.01 392.42 29.92 393.79 29.57 394.55C29.55 394.62 29.45 394.76 29.4 394.83C29.38 394.83 29.37 394.83 29.35 394.83C29.13 394.73 28.95 394.55 28.76 394.42C25.6 391.66 24.76 387.21 21.81 384.28C20.26 382.76 17.96 381.56 15.86 381C13.57 380.41 11.26 380.9 9.19998 379.48C8.45998 378.96 7.60998 379.72 7.57998 380.48C7.28998 384.65 6.24998 389.45 7.90998 393.45C9.38998 397.04 12.82 398.69 16.2 400.07C17.84 400.69 19.48 401.38 21 402.31C21.83 402.83 23.31 403.72 23.02 404.9C22.74 406.07 20.8 405.42 19.85 405.18C17.88 404.66 16 403.83 14.14 403.11C11.04 401.87 6.22997 400.01 3.33997 402.63C2.07997 403.73 2.36998 405.6 3.07998 406.91C4.17998 409.05 6.52998 410.64 8.55998 411.77C13.2 414.29 18.53 412.63 23.39 414.01C24.51 414.29 27.89 415.67 27.43 417.32C27.27 417.91 26.31 418.32 25.84 418.53C24.63 419.01 23.18 419.32 21.89 419.18C16.98 418.6 13.04 414.8 8.03998 414.46C5.82998 414.32 3.05998 415.08 1.44998 416.63C0.109975 417.98 0.279977 419.87 1.09998 421.46C2.09998 423.29 4.04998 424.67 5.85998 425.63C7.97998 426.77 10.31 427.32 12.69 427.29C17.47 427.19 22.12 424.7 26.73 427.05C27.35 427.36 28.11 427.81 28.32 428.53C28.49 429.08 27.91 429.63 27.54 429.98C25.97 431.46 23.16 432.22 21.06 432.36C18.51 432.46 15.97 431.46 13.54 430.77C10.99 430.08 8.43998 429.81 5.82998 430.43C3.94998 430.91 2.03998 432.15 1.89998 434.29C1.77998 436.22 3.06998 437.94 4.36998 439.26C6.08998 440.95 8.31998 442.16 10.6 442.91C13.07 443.74 15.95 443.29 18.41 442.74C21 442.19 23.48 441.29 26.07 440.81C26.76 440.71 27.29 440.57 27.93 440.26C28.6 439.91 29.24 439.47 29.98 439.26C30.6 439.05 30.6 439.88 30.65 440.36C30.77 441.57 29.34 442.36 28.51 442.98C27.7 443.53 26.99 444.26 26.16 444.77C25.19 445.32 24.13 445.73 23.09 446.15C21.04 447.01 18.85 447.87 17.33 449.53C15.85 451.19 15.59 453.64 16.36 455.67C17.96 459.88 23.64 459.64 27.1 458.22C29.31 457.32 30.88 455.77 32.07 453.7C33.52 451.11 34.17 448.29 36.54 446.46C37.3 447.39 37.44 448.42 36.99 449.74C36.37 451.53 34.99 453.12 33.83 454.57C31.54 457.43 27.79 460.99 28.04 465.02C28.09 465.5 28.4 465.95 28.89 466.06C31.1 466.54 33.34 466.64 35.41 465.61C37.12 464.75 38.25 463.06 39.05 461.37C40.48 458.37 41.05 454.71 43.05 452.02C43.08 452.92 42.76 453.74 42.34 454.78C41.63 456.57 41.82 458.43 42.43 460.26C43.33 463.05 45.76 465.19 48.64 463.47C50.21 462.54 51.3 460.82 52.14 459.23C53.09 457.47 53.5 455.4 53.55 453.4C53.62 450.92 53 448.43 52.08 446.09C57.27 449.33 65.39 451.06 67.89 444.09C70.01 438.12 61.53 439.64 57.16 438.57C57.81 438.43 58.52 438.43 59.16 438.36C61.02 438.22 62.88 438.22 64.75 437.95C68.2 437.4 71.23 435.43 71.18 431.57C71.15 428.26 67.49 428.91 65.33 429.46C63.57 429.88 60.5 431.05 58.54 430.22C62.44 428.43 66.8 426.43 68.68 422.43C69.54 420.6 70.15 417.74 69.23 415.81C68.49 414.29 66.57 414.71 65.37 415.26C62.06 416.85 59.85 420.05 56.64 421.81C55.88 422.26 55.09 422.64 54.26 422.91C53.93 423.01 53.62 423.12 53.29 423.12C53.17 423.15 53 423.12 52.91 423.12C52.89 423.05 52.89 422.98 52.89 422.91C52.99 422.43 53.2 421.94 53.42 421.53C53.9 420.5 54.56 419.67 55.44 419.05C57.16 417.74 59.11 416.88 60.73 415.46C62.56 413.87 63.51 411.74 63.94 409.39C64.34 407.32 64.47 404.91 63.54 402.97C62.61 400.9 60.68 400.35 58.57 400.7C52.74 401.73 52.9 408.32 50.84 412.56C50.29 413.7 49.46 414.77 48.63 415.66C48.28 416.04 47.32 417.18 46.7 417.11C46.35 417.04 46.39 415.32 46.39 414.97C46.41 413.45 46.82 412.14 47.56 410.83C49.4 407.52 52.56 404.9 53.27 401.03C53.72 398.44 53.17 394.89 50.49 393.72C47.66 392.44 44.63 395.06 43.47 397.48C42.02 400.55 42.73 404.48 40.3 406.97C39.23 405.76 39.01 404.21 39.2 402.42C39.49 399.8 40.36 397.32 41.03 394.8C41.67 392.39 42.29 389.8 41.88 387.32C41.51 384.75 39.73 382.95 37.37 382.06Z" fill="#9DB2D9"></path></g><g id="Group_19"><path id="Vector_14" fill-rule="evenodd" clip-rule="evenodd" d="M142.75 414.44C142.46 412.23 141.49 410.13 140.48 408.2C140.19 407.65 139.46 407.51 138.98 407.79C136.36 409.41 133.79 411.14 131.06 412.55C130.16 413.03 128.9 413.59 128.06 413.69C128.01 413.69 127.8 413.66 127.71 413.66C127.71 413.66 127.71 413.66 127.69 413.63C127.69 413.39 127.72 413.15 127.78 412.9C128.66 408.83 132.16 405.93 133.28 401.93C133.88 399.79 133.83 397.24 133.28 395.1C132.7 392.82 131.16 391.03 131.4 388.55C131.49 387.65 130.42 387.31 129.74 387.62C125.94 389.38 121.25 390.79 118.53 394.21C116.13 397.25 116.31 401.04 116.77 404.63C116.98 406.39 117.17 408.15 117.11 409.94C117.08 410.9 116.97 412.63 115.83 412.98C114.62 413.29 114.28 411.26 114.04 410.29C113.56 408.36 113.37 406.29 113.11 404.29C112.7 400.98 111.97 395.91 108.31 394.64C106.71 394.09 105.26 395.22 104.41 396.5C103.08 398.5 102.81 401.29 102.82 403.6C102.84 408.91 106.87 412.77 108.05 417.67C108.31 418.84 108.76 422.43 107.07 422.84C106.48 422.98 105.67 422.36 105.26 422.01C104.24 421.18 103.28 420.08 102.79 418.87C100.91 414.28 102.31 409.04 100.2 404.49C99.27 402.49 97.25 400.42 95.11 399.76C93.3 399.24 91.7 400.28 90.75 401.76C89.61 403.55 89.35 405.93 89.37 407.97C89.42 410.35 90.02 412.7 91.23 414.76C93.63 418.87 98.02 421.76 98.23 426.9C98.26 427.59 98.23 428.49 97.69 429.04C97.29 429.45 96.52 429.18 96.05 429.04C93.96 428.35 91.95 426.28 90.84 424.49C89.48 422.35 89.15 419.63 88.56 417.18C87.94 414.59 86.97 412.21 85.14 410.28C83.81 408.83 81.78 407.8 79.86 408.69C78.1 409.52 77.22 411.45 76.72 413.24C76.05 415.59 76.08 418.07 76.53 420.45C77.01 423 78.75 425.31 80.43 427.24C82.17 429.21 84.17 430.93 85.85 432.96C86.28 433.51 86.63 433.93 87.23 434.34C87.85 434.75 88.54 435.1 89.09 435.65C89.56 436.13 88.85 436.48 88.45 436.75C87.45 437.44 86.05 436.61 85.12 436.13C84.24 435.72 83.28 435.44 82.43 434.96C81.45 434.41 80.58 433.65 79.7 432.96C77.98 431.58 76.17 430.06 73.94 429.55C71.8 429.07 69.53 430.03 68.15 431.65C65.24 435.1 68.18 439.96 71.08 442.31C72.94 443.79 75.08 444.45 77.46 444.48C80.41 444.48 83.2 443.72 85.94 444.89C85.51 445.99 84.66 446.61 83.32 446.82C81.44 447.17 79.39 446.75 77.54 446.41C73.92 445.79 68.99 444.27 65.61 446.41C65.2 446.69 64.97 447.17 65.11 447.65C65.75 449.82 66.75 451.82 68.65 453.13C70.22 454.23 72.27 454.41 74.12 454.27C77.43 454.06 80.91 452.82 84.24 453.24C83.48 453.72 82.58 453.83 81.5 453.96C79.55 454.24 78.03 455.27 76.72 456.68C74.72 458.82 74.03 461.99 76.91 463.68C78.48 464.61 80.53 464.71 82.31 464.68C84.34 464.68 86.31 464.06 88.1 463.09C90.32 461.95 92.19 460.23 93.79 458.26C93.48 464.4 95.88 472.33 103.19 471.16C109.43 470.13 104.02 463.43 102.86 459.09C103.26 459.64 103.64 460.19 103.98 460.75C105 462.34 105.91 463.96 107.05 465.44C109.19 468.2 112.4 469.92 115.74 467.99C118.62 466.33 116.29 463.44 114.77 461.85C113.53 460.54 111.01 458.4 110.8 456.26C114.25 458.81 118.1 461.64 122.53 461.37C124.53 461.23 127.36 460.4 128.58 458.68C129.58 457.27 128.29 455.82 127.18 455.02C124.21 452.88 120.34 452.5 117.23 450.54C116.49 450.09 115.78 449.57 115.13 448.99C114.89 448.75 114.66 448.54 114.48 448.27C114.39 448.17 114.34 447.99 114.31 447.92C114.36 447.89 114.4 447.85 114.48 447.82C114.95 447.65 115.46 447.61 115.95 447.58C117.07 447.51 118.11 447.72 119.12 448.16C121.07 449.02 122.78 450.33 124.79 451.09C127.05 451.92 129.41 451.71 131.67 450.95C133.67 450.26 135.83 449.23 137.1 447.5C138.41 445.67 138 443.71 136.67 442.05C132.94 437.43 127.25 440.74 122.53 441.01C121.27 441.08 119.98 440.87 118.75 440.6C118.25 440.46 116.78 440.19 116.56 439.6C116.42 439.29 117.99 438.43 118.28 438.26C119.63 437.57 120.95 437.3 122.45 437.3C126.28 437.33 130.05 438.85 133.82 437.58C136.29 436.75 139.11 434.54 138.87 431.61C138.61 428.54 134.84 427.13 132.16 427.3C128.8 427.51 125.69 430.06 122.31 429.09C122.86 427.57 124.14 426.61 125.79 425.92C128.21 424.92 130.81 424.47 133.34 423.85C135.75 423.23 138.29 422.54 140.29 420.95C142.41 419.37 143.1 416.96 142.75 414.44Z" fill="#B0C2E4"></path></g><g id="Group_20"><path id="Vector_15" fill-rule="evenodd" clip-rule="evenodd" d="M126.56 393.23C125.3 398.75 124.2 404.3 122.61 409.75C120.99 415.3 118.68 420.48 115.49 425.37C108.92 435.37 100.54 444.06 93.76 454C93.48 454.42 93.54 454.79 93.74 455.1C92.45 457.58 91.69 460.38 91.14 463.07C90.19 467.73 89.9 472.52 89.71 477.28C89.49 483.11 89.54 488.87 89.81 494.7C90.12 501.53 90.57 508.36 90.28 515.19C90.26 515.6 90.25 515.98 90.21 516.36C90.14 517.81 92.33 517.81 92.42 516.36C92.8 509.7 92.4 503.01 92.07 496.36C91.79 490.43 91.64 484.5 91.86 478.56C92.03 473.94 92.26 469.32 93.05 464.76C93.76 460.66 94.9 456 98.02 452.97C98.47 452.56 98.42 452.01 98.14 451.59C104.47 443 111.73 435.1 117.59 426.14C120.73 421.35 122.97 416.17 124.63 410.69C126.3 405.17 127.39 399.45 128.68 393.82C128.99 392.47 126.89 391.85 126.56 393.23Z" fill="#B0C2E4"></path></g><g id="Group_21"><path id="Vector_16" fill-rule="evenodd" clip-rule="evenodd" d="M91.76 514.49C90.57 503.83 85.67 494.28 80.58 485C75.53 475.79 70.23 466.48 68.68 455.92C68.47 454.54 66.35 455.13 66.56 456.51C69.65 477.55 87.2 493.24 89.56 514.49C89.72 515.87 91.92 515.91 91.76 514.49Z" fill="#B0C2E4"></path></g><g id="Group_22"><path id="Vector_17" fill-rule="evenodd" clip-rule="evenodd" d="M123.02 466.69C113.62 470.83 104.43 477.07 98.14 485.25C94.69 489.7 92.67 494.77 91.4 500.08C90.94 494.56 89.9 489.04 88.85 483.59C86.37 470.9 84.47 458.1 83.28 445.17C82.8 440.07 82.45 434.96 82.21 429.79C82.16 428.41 79.95 428.41 80.02 429.79C80.68 444.07 82.31 458.28 84.54 472.35C86.02 481.9 88.56 491.32 89.28 500.98C88.45 495.74 87.21 490.63 85.61 485.6C80.7 470.22 77.59 462.15 65.05 455.66C60.55 453.32 54.93 451.8 52.77 446.69C52.22 445.38 50.32 446.52 50.87 447.79C53.01 452.89 58.25 454.76 62.84 457C75.19 463 79.59 473.94 83.6 486.49C86.53 495.73 88.22 505.39 88.24 515.05C88.24 515.12 88.26 515.19 88.26 515.22C88.1 515.95 88.67 516.43 89.28 516.43C89.57 517.46 91.33 517.33 91.44 516.05C92.23 505.67 93.42 494.77 100.06 486.32C106.2 478.49 115.1 472.56 124.13 468.63C125.42 468.04 124.3 466.14 123.02 466.69Z" fill="#9DB2D9"></path></g><g id="Group_23"><path id="Vector_18" fill-rule="evenodd" clip-rule="evenodd" d="M58.36 390.82C56.38 389.79 54.1 389.37 51.91 389.16C51.32 389.09 50.75 389.57 50.74 390.13C50.58 393.23 50.57 396.34 50.17 399.37C50.05 400.37 49.83 401.72 49.41 402.47C49.38 402.54 49.26 402.68 49.2 402.75C49.18 402.75 49.17 402.75 49.15 402.75C48.94 402.61 48.79 402.44 48.61 402.27C45.71 399.23 45.32 394.68 42.66 391.51C41.26 389.82 39.11 388.41 37.06 387.65C34.84 386.89 32.49 387.1 30.59 385.51C29.88 384.93 28.99 385.58 28.87 386.34C28.18 390.48 26.68 395.13 27.96 399.31C29.1 403 32.32 405 35.56 406.69C37.13 407.48 38.68 408.31 40.11 409.38C40.89 409.93 42.27 411.04 41.89 412.14C41.48 413.31 39.61 412.45 38.68 412.11C36.78 411.39 35.01 410.42 33.21 409.49C30.24 407.94 25.62 405.66 22.52 407.97C21.14 408.97 21.26 410.83 21.83 412.21C22.74 414.45 24.9 416.28 26.83 417.59C31.19 420.56 36.64 419.42 41.38 421.25C42.47 421.67 45.69 423.32 45.07 424.94C44.85 425.53 43.85 425.8 43.35 425.97C42.11 426.35 40.66 426.52 39.38 426.25C34.55 425.18 31 421.04 26.05 420.21C23.88 419.86 21.03 420.35 19.29 421.76C17.81 422.93 17.79 424.86 18.48 426.49C19.29 428.42 21.1 430.01 22.81 431.11C24.81 432.42 27.07 433.25 29.45 433.42C34.21 433.8 39.09 431.8 43.44 434.56C44.03 434.91 44.75 435.46 44.89 436.18C44.99 436.73 44.36 437.25 43.98 437.52C42.26 438.87 39.39 439.38 37.29 439.24C34.72 439.14 32.32 437.9 29.96 436.96C27.49 436.03 24.98 435.51 22.32 435.89C20.41 436.2 18.37 437.24 18.03 439.34C17.72 441.24 18.86 443.1 20.03 444.48C21.56 446.38 23.65 447.79 25.86 448.76C28.24 449.8 31.14 449.66 33.65 449.38C36.27 449.03 38.82 448.41 41.46 448.17C42.15 448.14 42.68 448.07 43.36 447.79C44.07 447.51 44.76 447.17 45.5 447C46.14 446.9 46.05 447.65 46.05 448.17C46.07 449.38 44.57 450.03 43.67 450.55C42.81 451.03 42.05 451.69 41.17 452.1C40.15 452.62 39.05 452.89 37.98 453.24C35.86 453.86 33.58 454.48 31.91 456.03C30.29 457.51 29.81 459.93 30.37 462C31.56 466.35 37.23 466.69 40.8 465.62C43.09 464.93 44.82 463.52 46.18 461.59C47.89 459.18 48.8 456.42 51.34 454.83C52.01 455.8 52.03 456.83 51.46 458.11C50.68 459.8 49.17 461.28 47.86 462.63C45.29 465.25 41.24 468.42 41.1 472.46C41.08 472.94 41.36 473.39 41.84 473.56C43.98 474.29 46.2 474.56 48.36 473.77C50.14 473.08 51.43 471.46 52.4 469.87C54.11 467.04 55.02 463.45 57.28 460.97C57.23 461.87 56.81 462.63 56.31 463.62C55.43 465.38 55.43 467.24 55.85 469.11C56.49 471.97 58.69 474.32 61.73 472.9C63.39 472.14 64.64 470.48 65.63 469.04C66.75 467.31 67.35 465.38 67.6 463.38C67.91 460.9 67.53 458.34 66.84 455.93C71.7 459.66 79.64 462.17 82.77 455.45C85.48 449.73 76.87 450.41 72.63 448.93C73.32 448.9 73.99 448.9 74.65 448.93C76.53 449 78.38 449.17 80.24 449.03C83.74 448.82 86.97 447.17 87.28 443.34C87.56 440.03 83.87 440.3 81.66 440.65C79.88 440.93 76.71 441.79 74.83 440.75C78.88 439.37 83.4 437.78 85.68 433.99C86.7 432.26 87.59 429.44 86.87 427.44C86.28 425.85 84.34 426.1 83.08 426.54C79.63 427.78 77.11 430.75 73.77 432.2C72.96 432.58 72.13 432.89 71.29 433.06C70.96 433.13 70.63 433.2 70.29 433.2C70.17 433.2 70.03 433.17 69.93 433.17C69.93 433.1 69.93 433.03 69.95 432.96C70.09 432.48 70.35 432.03 70.61 431.58C71.18 430.65 71.92 429.92 72.87 429.3C74.7 428.2 76.72 427.54 78.47 426.3C80.45 424.89 81.59 422.82 82.26 420.54C82.85 418.54 83.19 416.13 82.47 414.12C81.73 411.98 79.87 411.22 77.74 411.36C71.83 411.84 71.36 418.39 68.91 422.46C68.26 423.53 67.32 424.46 66.39 425.29C66.03 425.64 64.94 426.74 64.36 426.6C64.01 426.5 64.2 424.74 64.24 424.39C64.41 422.87 64.95 421.63 65.81 420.39C67.98 417.29 71.36 415.01 72.45 411.18C73.14 408.66 72.93 405.08 70.4 403.63C67.69 402.11 64.43 404.42 63.04 406.73C61.32 409.63 61.64 413.63 58.97 415.9C58.02 414.56 57.95 412.93 58.31 411.21C58.85 408.66 59.93 406.24 60.86 403.79C61.74 401.48 62.58 398.96 62.43 396.44C62.22 393.89 60.62 391.95 58.36 390.82Z" fill="#C4D1EB"></path></g></g><g id="Group_24"><path id="Vector_19" fill-rule="evenodd" clip-rule="evenodd" d="M115.68 581.2H68.36L52.87 520.01H130.09L115.68 581.2Z" fill="#B0C2E4"></path></g><g id="Group_25"><path id="Vector_20" d="M134.17 512.05H47.7V520.02H134.17V512.05Z" fill="#9DB2D9"></path></g><g id="Group_26"><path id="Vector_21" fill-rule="evenodd" clip-rule="evenodd" d="M91.48 520.01H52.87L68.36 581.2H91.48V520.01Z" fill="#9DB2D9"></path></g><g id="Group_27"><path id="Vector_22" d="M91.48 512.05H47.7V520.02H91.48V512.05Z" fill="#859AC6"></path></g><g id="Group_28"><path id="Vector_23" fill-rule="evenodd" clip-rule="evenodd" d="M115.68 582.09H68.36L52.87 573.85H130.09L115.68 582.09Z" fill="#9DB2D9"></path></g><g id="Group_29"><path id="Vector_24" fill-rule="evenodd" clip-rule="evenodd" d="M91.48 573.85H52.87L68.36 582.09H91.48V573.85Z" fill="#859AC6"></path></g></g></g><g id="Group_30"><path id="Vector_25" fill-rule="evenodd" clip-rule="evenodd" d="M674.61 630.31C772.32 630.31 852.03 620.03 852.03 607.41C852.03 594.79 772.32 584.51 674.61 584.51C576.87 584.51 497.16 594.79 497.16 607.41C497.17 620.03 576.87 630.31 674.61 630.31Z" fill="#C4D1EB"></path></g><g id="Group_31"><path id="Vector_26" fill-rule="evenodd" clip-rule="evenodd" d="M194.11 596.89C249.12 596.89 293.96 591.09 293.96 583.99C293.96 576.92 249.12 571.13 194.11 571.13C139.11 571.13 94.26 576.92 94.26 583.99C94.26 591.1 139.11 596.89 194.11 596.89Z" fill="#C4D1EB"></path></g><g id="Group_32"><path id="Vector_27" fill-rule="evenodd" clip-rule="evenodd" d="M137.73 174.14L145.09 178.43C147.57 179.86 148.42 183.09 146.99 185.57L145.35 188.36C143.42 191.65 144.26 193.15 144.87 193.69C146.51 195.16 148.03 196.76 149.56 198.33C149.99 198.81 151.42 200.4 155.17 198.21L157.72 196.73C160.24 195.28 163.45 196.14 164.89 198.63L169.17 205.99C170.62 208.47 169.79 211.7 167.27 213.13L164.75 214.61C161.23 216.66 161.3 217.7 161.78 219.2C162.36 221.23 163.02 223.29 163.47 225.41C163.85 227.29 163.71 228.64 168.47 228.64H171.37C174.27 228.64 176.61 230.99 176.61 233.86V242.4C176.61 245.26 174.26 247.62 171.37 247.62H168.47C163.71 247.62 163.85 248.96 163.47 250.85C163.02 252.97 162.37 255.01 161.78 257.06C161.3 258.54 161.23 259.6 164.75 261.65L167.27 263.12C169.79 264.57 170.62 267.78 169.17 270.26L164.89 277.64C163.44 280.12 160.23 280.99 157.72 279.54L155.17 278.06C151.43 275.85 150 277.44 149.56 277.92C148.02 279.51 146.51 281.09 144.87 282.58C144.27 283.1 143.42 284.62 145.35 287.93L146.99 290.69C148.42 293.17 147.58 296.42 145.09 297.86L137.73 302.14C135.23 303.59 132.02 302.73 130.57 300.24L128.95 297.45C127 294.1 125.09 294.24 124.28 294.48C121.93 295.24 119.76 295.72 117.33 296.34C116.45 296.58 114.93 297.24 114.93 301.24V304.21C114.93 307.11 112.58 309.45 109.7 309.45H101.18C98.28 309.45 95.95 307.11 95.95 304.21V301.24C95.95 297.24 94.42 296.58 93.54 296.34C91.11 295.72 88.94 295.24 86.59 294.48C85.78 294.24 83.87 294.1 81.92 297.45L80.3 300.24C78.85 302.73 75.64 303.59 73.16 302.14L65.8 297.86C63.32 296.41 62.45 293.17 63.9 290.69L65.52 287.93C67.43 284.62 66.61 283.1 66 282.58C64.36 281.1 62.84 279.51 61.33 277.92C60.86 277.44 59.45 275.85 55.71 278.06L53.14 279.54C50.66 280.99 47.43 280.12 45.98 277.64L41.7 270.26C40.25 267.78 41.1 264.57 43.58 263.12L46.13 261.65C49.65 259.6 49.54 258.55 49.11 257.06C48.49 255.01 47.83 252.97 47.4 250.85C46.99 248.97 47.18 247.62 42.38 247.62H39.47C36.59 247.62 34.24 245.26 34.24 242.4V233.86C34.24 230.98 36.59 228.64 39.47 228.64H42.38C47.17 228.64 46.98 227.29 47.4 225.41C47.83 223.29 48.49 221.24 49.11 219.2C49.54 217.7 49.65 216.67 46.13 214.61L43.58 213.13C41.1 211.7 40.25 208.47 41.7 205.99L45.98 198.63C47.43 196.15 50.65 195.28 53.14 196.73L55.71 198.21C59.45 200.4 60.87 198.81 61.33 198.33C62.85 196.76 64.36 195.16 66 193.69C66.6 193.16 67.43 191.66 65.52 188.36L63.9 185.57C62.45 183.09 63.31 179.86 65.8 178.43L73.16 174.14C75.64 172.69 78.85 173.54 80.3 176.04L81.92 178.82C83.87 182.18 85.78 182.04 86.59 181.79C88.94 181.05 91.11 180.57 93.54 179.93C94.42 179.71 95.95 179.05 95.95 175.07V172.07C95.95 169.19 98.28 166.86 101.18 166.86H109.7C112.58 166.86 114.93 169.19 114.93 172.07V175.07C114.93 179.05 116.45 179.71 117.33 179.93C119.76 180.57 121.93 181.05 124.28 181.79C125.09 182.05 127 182.19 128.95 178.82L130.57 176.04C132.03 173.53 135.23 172.69 137.73 174.14ZM105.44 196.31C82.37 196.31 63.64 215.02 63.64 238.11C63.64 261.2 82.37 279.93 105.44 279.93C128.55 279.93 147.26 261.2 147.26 238.11C147.25 215.02 128.54 196.31 105.44 196.31Z" fill="#C4D1EB"></path></g><g id="Group_33"><path id="Vector_28" fill-rule="evenodd" clip-rule="evenodd" d="M611.67 39.71L621.26 45.26C624.47 47.14 625.57 51.31 623.71 54.54L621.6 58.16C619.12 62.44 620.19 64.39 620.95 65.08C623.09 66.98 625.05 69.05 627.05 71.1C627.6 71.7 629.46 73.77 634.29 70.95L637.67 69.02C640.88 67.14 645.05 68.24 646.91 71.47L652.46 81.04C654.36 84.26 653.25 88.42 650.01 90.3L646.7 92.21C642.15 94.87 642.29 96.21 642.84 98.14C643.63 100.79 644.5 103.45 645.08 106.19C645.6 108.64 645.36 110.38 651.56 110.38H655.35C659.07 110.38 662.14 113.43 662.14 117.16V128.21C662.14 131.95 659.07 134.99 655.35 134.99H651.56C645.35 134.99 645.59 136.75 645.08 139.2C644.49 141.94 643.63 144.6 642.84 147.24C642.29 149.17 642.15 150.53 646.7 153.19L650.01 155.11C653.25 156.99 654.36 161.15 652.46 164.37L646.91 173.94C645.05 177.15 640.87 178.25 637.67 176.39L634.29 174.46C629.46 171.61 627.6 173.7 627.05 174.29C625.05 176.36 623.08 178.43 620.95 180.33C620.19 181.02 619.12 182.97 621.6 187.23L623.71 190.87C625.57 194.09 624.47 198.27 621.26 200.13L611.67 205.68C608.46 207.56 604.29 206.46 602.43 203.23L600.33 199.61C597.81 195.28 595.33 195.44 594.26 195.78C591.19 196.76 588.4 197.38 585.26 198.19C584.09 198.5 582.16 199.33 582.16 204.5V208.38C582.16 212.12 579.12 215.16 575.37 215.16H564.3C560.58 215.16 557.54 212.12 557.54 208.38V204.5C557.54 199.33 555.57 198.5 554.43 198.19C551.26 197.38 548.46 196.76 545.39 195.78C544.35 195.44 541.87 195.28 539.32 199.61L537.25 203.23C535.39 206.46 531.18 207.56 527.97 205.68L518.42 200.13C515.18 198.27 514.08 194.09 515.97 190.87L518.07 187.23C520.55 182.97 519.45 181.02 518.69 180.33C516.55 178.43 514.62 176.36 512.62 174.29C512.04 173.7 510.21 171.62 505.34 174.46L501.99 176.39C498.78 178.25 494.61 177.15 492.75 173.94L487.16 164.37C485.3 161.14 486.4 156.99 489.65 155.11L492.96 153.19C497.51 150.54 497.37 149.17 496.79 147.24C496 144.6 495.17 141.95 494.55 139.2C494.07 136.75 494.27 134.99 488.1 134.99H484.27C480.54 134.99 477.51 131.95 477.51 128.21V117.16C477.51 113.44 480.54 110.38 484.27 110.38H488.1C494.27 110.38 494.07 108.64 494.55 106.19C495.17 103.45 496 100.79 496.79 98.14C497.38 96.21 497.51 94.86 492.96 92.21L489.65 90.3C486.41 88.42 485.3 84.26 487.16 81.04L492.75 71.47C494.61 68.24 498.79 67.14 501.99 69.02L505.34 70.95C510.2 73.78 512.03 71.71 512.62 71.1C514.62 69.05 516.55 66.98 518.69 65.08C519.45 64.39 520.55 62.44 518.07 58.16L515.97 54.54C514.07 51.32 515.18 47.14 518.42 45.26L527.97 39.71C531.18 37.85 535.39 38.95 537.25 42.18L539.32 45.78C541.87 50.13 544.35 49.95 545.39 49.63C548.46 48.65 551.25 48.03 554.43 47.22C555.57 46.91 557.54 46.08 557.54 40.91V37.03C557.54 33.29 560.57 30.25 564.3 30.25H575.37C579.13 30.25 582.16 33.28 582.16 37.03V40.91C582.16 46.08 584.09 46.91 585.26 47.22C588.4 48.03 591.19 48.65 594.26 49.63C595.33 49.96 597.81 50.13 600.33 45.78L602.43 42.18C604.29 38.95 608.46 37.85 611.67 39.71ZM569.84 79.31C545.87 79.31 526.45 98.74 526.45 122.7C526.45 146.65 545.87 166.09 569.84 166.09C593.81 166.09 613.19 146.66 613.19 122.7C613.19 98.74 593.81 79.31 569.84 79.31ZM569.84 68.48C539.87 68.48 515.59 92.74 515.59 122.7C515.59 152.64 539.87 176.92 569.84 176.92C599.78 176.92 624.06 152.64 624.06 122.7C624.05 92.74 599.77 68.48 569.84 68.48Z" fill="#C4D1EB"></path></g><g id="Group_34"><path id="Vector_29" fill-rule="evenodd" clip-rule="evenodd" d="M476.37 12.83H264.16C246.64 12.83 232.36 27.14 232.36 44.61V504.6C232.36 522.09 246.64 536.4 264.16 536.4H476.37C493.86 536.4 508.17 522.09 508.17 504.6V44.61C508.17 27.14 493.85 12.83 476.37 12.83Z" fill="#1D417F"></path></g><g id="Group_35"><path id="Vector_30" fill-rule="evenodd" clip-rule="evenodd" d="M476.37 17.36H264.16C249.16 17.36 236.91 29.62 236.91 44.61V504.6C236.91 519.6 249.15 531.85 264.16 531.85H476.37C491.37 531.85 503.65 519.61 503.65 504.6V44.61C503.65 29.63 491.37 17.36 476.37 17.36Z" fill="white"></path></g><g id="Group_36"><path id="Vector_31" fill-rule="evenodd" clip-rule="evenodd" d="M476.37 28.56C406.8 28.56 333.75 28.56 264.16 28.56C255.3 28.56 248.09 35.78 248.09 44.61V504.6C248.09 513.46 255.3 520.67 264.16 520.67H476.37C485.23 520.67 492.48 513.46 492.48 504.6V44.61C492.47 35.78 485.23 28.56 476.37 28.56Z" fill="#C4D1EB"></path></g><g id="head01"><g id="Group_37"><path id="Vector_32" fill-rule="evenodd" clip-rule="evenodd" d="M186.69 178.9C190 170.8 191.8 161.28 195.11 157.98C218.77 153.44 219.39 166.24 228.98 170.1C228.63 173.19 227.15 176.5 224.6 180C223.32 193.73 218.84 201.66 211.25 203.78C209.15 205.42 206.01 206.09 201.84 205.8C201.94 207.59 202.22 209.32 202.49 211.01C199.32 226.05 184.21 228.41 175.28 212.51C174.97 211.99 174.69 211.47 174.42 210.92C174.45 210.8 174.49 210.64 174.49 210.54V210.52C175.52 204.59 176.35 199.41 176.9 194.98C177.28 192.12 177.52 189.55 177.73 187.31C171.45 178.46 170.9 171.96 176.11 167.84C182.42 165.93 185.25 170.39 184.56 181.22C186.42 180.81 185.11 181.21 186.69 178.9Z" fill="#FAB688"></path></g><g id="Group_38"><path id="Vector_33" fill-rule="evenodd" clip-rule="evenodd" d="M228.98 170.1C219.39 166.24 218.77 153.44 195.11 157.98C191.8 161.27 190 170.79 186.69 178.9C185.1 181.21 186.41 180.81 184.55 181.23C185.24 170.4 182.41 165.93 176.1 167.85C170.89 171.97 171.44 178.47 177.72 187.32C177.51 189.58 177.27 192.13 176.89 194.99C158.89 172.59 167.02 147.05 181.03 140.34C177.86 140.2 174.54 140.94 171.03 142.53C176.58 137.01 183.17 135.79 190.69 138.86C190.52 134.34 191.17 131.12 192.69 129.19C192.55 132.22 192.83 134.61 193.41 136.35C199.14 132.5 208.97 132.88 218.31 138.09C230.42 144.83 241.93 158.59 247.49 155.83C244.91 167.81 236.98 174.14 228.98 170.1Z" fill="#1D417F"></path></g><g id="Group_48"><path id="Vector_43" fill-rule="evenodd" clip-rule="evenodd" d="M188.83 197.43C191.21 201.24 195.52 204.03 201.83 205.79C201.93 207.58 202.21 209.31 202.48 211C195.14 208.52 190.59 203.99 188.83 197.43Z" fill="#ED7D57"></path></g><g id="Group_93"><g id="Group_94"><path id="Vector_87" fill-rule="evenodd" clip-rule="evenodd" d="M204.04 190.79C207.59 192.48 209.7 193.03 213.52 193.79C215.04 194.1 207.31 203.43 203.59 191.26C203.52 190.98 203.76 190.66 204.04 190.79Z" fill="#EB795B"></path></g><g id="Group_95"><path id="Vector_88" fill-rule="evenodd" clip-rule="evenodd" d="M209.46 169.82C211.15 170.73 210.42 172.08 208.98 171.8C193.8 168.98 205.35 167.53 209.46 169.82Z" fill="#20386F"></path></g><g id="Group_96"><path id="Vector_89" fill-rule="evenodd" clip-rule="evenodd" d="M220.77 172.84C218.87 172.72 218.77 174.24 220.11 174.77C234.43 180.53 225.49 173.14 220.77 172.84Z" fill="#20386F"></path></g><g id="Group_97"><path id="Vector_90" fill-rule="evenodd" clip-rule="evenodd" d="M210.01 187.14L210.08 187.17C211.74 187.53 212.63 187.7 213.18 187.26C213.7 186.86 213.7 186.16 213.73 184.88C213.73 183.47 213.73 181.31 214.42 178.05C214.45 177.81 214.28 177.59 214.07 177.52C213.83 177.49 213.59 177.64 213.55 177.88C212.86 181.21 212.83 183.41 212.83 184.88C212.83 185.71 212.83 186.45 212.62 186.57C212.41 186.78 211.21 186.52 210.28 186.31C210.04 186.26 209.8 186.41 209.76 186.67C209.73 186.86 209.8 187.07 210.01 187.14Z" fill="#EB795B"></path></g><g id="Group_98"><path id="Vector_91" fill-rule="evenodd" clip-rule="evenodd" d="M221.18 183.36C222.22 183.7 224.32 180.05 221.8 179.22C220.49 178.77 219.46 182.79 221.18 183.36Z" fill="#20386F"></path></g><g id="Group_99"><path id="Vector_92" fill-rule="evenodd" clip-rule="evenodd" d="M204.9 178.52C205.94 178.87 208.07 175.21 205.56 174.38C204.21 173.93 203.21 177.95 204.9 178.52Z" fill="#20386F"></path></g><g id="Group_100"><path id="Vector_93" fill-rule="evenodd" clip-rule="evenodd" d="M204.21 191.09C202.35 191.83 210.49 195.66 212.49 195.02C212.7 194.95 213.52 194.43 213.45 194.14C213.38 193.85 212.28 193.79 211.97 193.74C209.25 193.23 206.77 192.4 204.21 191.09Z" fill="white"></path></g></g></g><g id="Group_39"><path id="Vector_34" fill-rule="evenodd" clip-rule="evenodd" d="M146.61 253.29C144.49 256.67 142.2 260.12 139.71 263.65C136.92 267.63 133.88 271.72 130.62 275.89C127.29 267.97 116.86 260.07 107.72 262.61C118.81 239.78 129.52 224.12 137.09 217.53C145.28 213.51 157.75 211.17 174.48 210.51C174.48 210.63 174.45 210.79 174.41 210.91C183.17 228.53 199.21 226.53 202.48 211C213.59 212.16 226.62 216.33 233.73 221.02C240.7 227.88 252.97 243.83 265.32 267.01C262.56 269.49 249.01 275.51 243.32 276.51C239.18 271.2 236.39 267.03 232.9 261.71C232.48 287.02 232.48 305.34 233.11 317.93C233.56 326.28 234.28 336.52 235.32 340.18C218.21 363.77 164.24 364.39 139.75 345.84C144.39 314.04 146.92 283.07 146.61 253.29Z" fill="#6D96CE"></path></g><g id="Group_40"><path id="Vector_35" fill-rule="evenodd" clip-rule="evenodd" d="M147.36 276.17C158.35 273.89 166.42 272.79 180.66 267.79C181.45 263.24 189.52 253.79 193.18 248.65C200.49 249.69 192.97 258.79 193.35 260.57C198.77 259.83 201.28 257.98 203.18 256.45C210.84 253.62 213.6 268.66 206.94 274.59C203.11 278.01 192.7 281.35 187.56 281.35C169.63 289.76 158.97 294.52 145.76 298.94C144.14 299.49 142.55 299.97 140.98 300.46C119.04 307.29 104.18 308.01 96.4 302.67C94.69 291.08 104.21 270.15 107.73 262.63C120.35 259.28 128.51 271.08 130.54 275.63C129.73 277.46 128.57 279.28 127.06 281.04C131.16 279.7 135.91 278.59 141.24 277.49C143.19 277.07 145.24 276.66 147.36 276.17Z" fill="#FAB688"></path></g><g id="Group_41"><path id="Vector_36" fill-rule="evenodd" clip-rule="evenodd" d="M252.15 273.69C249.12 271.21 235.25 262.12 231.39 258.36C232.01 253.82 228.15 242.15 226.63 236.04C220.49 234.45 224.01 245.59 223.25 247.13C219.11 244.53 217.59 241.9 216.49 239.82C211.18 234.47 204.83 247.53 208.56 255.45C210.7 259.97 218.08 266.8 222.22 268.56C225.32 272.25 232.08 282.25 234.64 285.22C252.85 314.95 279.1 321.71 280.3 305.57C279.75 297.43 271.4 280.67 263.54 268.27C261.54 269.49 258.4 271.05 255.09 272.46C260.37 275.88 264.37 280.39 267.13 286.05C262.67 280.17 259.4 278.17 252.15 273.69Z" fill="#FAB688"></path></g><g id="Group_42"><path id="Vector_37" fill-rule="evenodd" clip-rule="evenodd" d="M125.51 279.66C126.98 277.49 128.29 275.31 129.44 273.21C129.87 274 130.23 274.8 130.54 275.63C129.68 277.56 128.45 279.46 126.85 281.29C120.68 283.36 116.04 285.88 113.26 289.84C114.64 285.28 118.73 281.9 125.51 279.66ZM255.08 272.45C260.36 275.87 264.36 280.38 267.12 286.04C262.67 280.18 259.39 278.18 252.15 273.69C253.12 273.28 254.12 272.86 255.08 272.45Z" fill="#ED7D57"></path></g><g id="Group_43"><path id="Vector_38" fill-rule="evenodd" clip-rule="evenodd" d="M141.53 277.41C141.29 272.17 140.8 267.37 140.12 263.1C142.45 259.75 144.62 256.48 146.62 253.29C146.69 260.91 146.59 268.62 146.31 276.38C144.67 276.73 143.06 277.07 141.53 277.41ZM136.39 343.5C138.87 327.36 140.49 312.98 141.22 300.39C142.46 300.04 143.72 299.63 145.01 299.22C143.84 314.5 142.04 330.05 139.75 345.85C138.65 345.08 137.54 344.29 136.39 343.5Z" fill="#466FB5"></path></g><g id="Group_44"><path id="Vector_39" fill-rule="evenodd" clip-rule="evenodd" d="M216.49 239.82C211.18 234.47 204.83 247.53 208.56 255.45C208.7 255.69 208.84 255.95 208.97 256.21C211.04 259.92 216.07 264.76 219.94 267.3C220.35 267.58 220.77 267.82 221.18 268.04L220.7 276.11C220.63 277.77 219.18 279.11 217.53 279.11L199.46 279.08H198.29C201.81 277.84 205.12 276.25 206.95 274.6C212.19 269.94 211.61 259.65 207.4 256.84C206.23 256.08 204.85 255.87 203.19 256.46C202.29 257.18 201.29 257.94 199.91 258.67C198.77 259.24 197.46 259.76 195.74 260.15L196.15 253.49C196.39 252.54 196.5 251.64 196.29 250.87L196.36 249.35L197.26 234.04C197.36 232.4 198.78 231.06 200.43 231.06L220.33 231.09C221.95 231.09 223.23 232.43 223.12 234.07L222.43 246.61C218.91 244.15 217.53 241.77 216.49 239.82Z" fill="#071023"></path></g><g id="Group_45"><path id="Vector_40" fill-rule="evenodd" clip-rule="evenodd" d="M199.97 564.16C197.28 499.11 191.87 431.38 184 369.23C179.66 408.68 170.45 472.56 156.72 563.58C152.53 565.96 146.03 566.3 137.23 564.65C128.04 489.84 128.44 417.45 138.06 344.68L139.75 345.85C162.06 362.75 208.83 363.72 229.94 345.99C236.6 413.1 232.53 485.88 217.7 564.34C213.7 565.85 207.8 565.82 199.97 564.16Z" fill="#1D417F"></path></g><g id="Group_46"><path id="Vector_41" fill-rule="evenodd" clip-rule="evenodd" d="M154.93 581.13C146.83 581.34 145.1 583.16 138.41 585.03C128.86 587.69 122.58 585.62 124.68 580.89C131.44 576.65 136.25 572.78 139.15 569.27C141.74 567.89 147.31 568.54 148.15 573.13C151.7 573.61 152.87 572.72 153.58 570.44C154.63 573.13 155.08 576.71 154.93 581.13ZM198.9 582.23C209.38 582.44 210.83 584.16 216.35 585.27C229.94 589.13 238.97 587.13 236.15 581.99C227.87 577.75 221.94 573.88 218.35 570.37C215.18 568.99 211.86 570.3 208.45 574.23C204.07 574.71 201.45 573.81 200.59 571.51C199.32 574.23 198.76 577.82 198.9 582.23Z" fill="#071023"></path></g><g id="Group_47"><path id="Vector_42" fill-rule="evenodd" clip-rule="evenodd" d="M216.08 564.85C216.01 566.64 216.25 568.33 216.74 569.88C214.08 569.5 211.32 570.95 208.46 574.23C204.49 574.68 201.94 573.95 200.87 572.09C201.53 569.64 201.87 567.12 202.04 564.57C207.9 565.61 212.56 565.71 216.08 564.85ZM153.55 564.85C153.48 566.85 153.5 568.71 153.58 570.44C152.87 572.72 151.7 573.61 148.15 573.13C147.37 568.96 142.73 568.06 139.94 568.92C140.06 567.64 140.1 566.37 140.06 565.13C145.58 565.95 150.06 565.85 153.55 564.85Z" fill="#FAB688"></path></g><g id="Group_49"><path id="Vector_44" fill-rule="evenodd" clip-rule="evenodd" d="M144.79 301.83C177.59 305.17 206.84 305 232.67 301.28C232.64 298.38 232.64 295.28 232.64 292C205.39 294.24 181.91 294.52 162.14 292.79C156.64 295.07 151.43 297.03 145.76 298.93L145.02 299.21L145 299.28L145.02 299.18L141.23 300.39C141.21 300.74 141.2 301.08 141.18 301.42C142.39 301.56 143.6 301.69 144.79 301.83Z" fill="white"></path></g><g id="Group_50"><path id="Vector_45" fill-rule="evenodd" clip-rule="evenodd" d="M181.93 283.97C199.59 284.52 216.15 283.56 231.53 281.14C229.29 278.11 226.56 274.17 224.36 271.27C223.26 271.41 222.12 271.48 220.98 271.55L220.7 276.1C220.63 277.76 219.18 279.1 217.53 279.1L199.46 279.07H198.29C197.95 279.17 197.67 279.28 197.33 279.38C193.74 280.59 190.05 281.35 187.57 281.35C185.59 282.24 183.73 283.14 181.93 283.97ZM146.48 270.72C144.69 270.58 142.86 270.44 141.03 270.31C141.17 271.83 141.29 273.35 141.39 274.93C141.44 275.9 141.49 276.72 141.53 277.41L146.31 276.38L147.36 276.17C154.36 274.72 160.21 273.75 167.18 271.96C160.48 271.65 153.6 271.24 146.48 270.72Z" fill="white"></path></g><g id="Group_51"><path id="Vector_46" fill-rule="evenodd" clip-rule="evenodd" d="M470.75 66.65H381.84C379.5 66.65 377.6 68.55 377.6 70.86V115.66C402.74 118.94 422.68 138.87 425.95 164.01H470.75C473.06 164.01 474.96 162.11 474.96 159.77V70.86C474.96 68.55 473.06 66.65 470.75 66.65Z" fill="white"></path></g><g id="Group_52"><path id="Vector_47" fill-rule="evenodd" clip-rule="evenodd" d="M358.69 66.65H269.81C267.47 66.65 265.53 68.55 265.53 70.86V159.77C265.53 162.12 267.46 164.01 269.81 164.01H314.58C317.86 138.87 337.76 118.93 362.94 115.66V70.86C362.93 68.55 361 66.65 358.69 66.65Z" fill="#1D417F"></path></g><g id="Group_53"><path id="Vector_48" fill-rule="evenodd" clip-rule="evenodd" d="M474.96 271.83V182.92C474.96 180.59 473.06 178.7 470.75 178.7H425.95C422.67 203.84 402.74 223.76 377.6 227.05V271.83C377.6 274.18 379.5 276.04 381.84 276.04H470.75C473.06 276.03 474.96 274.17 474.96 271.83Z" fill="#1D417F"></path></g><g id="Group_54"><path id="Vector_49" fill-rule="evenodd" clip-rule="evenodd" d="M269.81 276.03H358.69C361 276.03 362.93 274.17 362.93 271.82V227.04C337.75 223.75 317.85 203.83 314.57 178.69H269.8C267.46 178.69 265.52 180.59 265.52 182.91V271.82C265.54 274.17 267.47 276.03 269.81 276.03Z" fill="white"></path></g><g id="Group_55"><path id="Vector_50" fill-rule="evenodd" clip-rule="evenodd" d="M370.24 119.88C341.82 119.88 318.78 142.92 318.78 171.34C318.78 199.76 341.82 222.8 370.24 222.8C398.66 222.8 421.7 199.76 421.7 171.34C421.7 142.92 398.66 119.88 370.24 119.88ZM370.24 127.57C394.45 127.57 414.04 147.16 414.04 171.34C414.04 195.52 394.45 215.11 370.24 215.11C346.1 215.11 326.51 195.52 326.51 171.34C326.51 147.16 346.1 127.57 370.24 127.57Z" fill="#1D417F"></path></g><g id="native-logo"><g id="Group_56"><path id="Vector_51" fill-rule="evenodd" clip-rule="evenodd" d="M366.04 156.27C367.42 154.61 368.87 153.06 370.25 151.63C371.7 153.06 373.08 154.61 374.49 156.27C371.69 156.17 368.87 156.17 366.04 156.27ZM362.38 156.49C364.31 154.02 366.31 151.76 368.31 149.73C366.48 147.99 364.65 146.47 362.86 145.21C357.55 141.36 352.89 139.88 350.24 141.66C347.62 143.44 347.27 148.28 348.79 154.7C349.1 155.89 349.45 157.13 349.89 158.41C353.62 157.51 357.83 156.86 362.38 156.49ZM354.17 168.53C352.83 165.93 351.69 163.39 350.79 160.98C353.65 160.31 356.79 159.79 360.1 159.43C357.97 162.34 355.97 165.39 354.17 168.53ZM352.59 171.34C350.8 168.01 349.31 164.75 348.14 161.65C346.86 162.03 345.62 162.43 344.45 162.86C338.31 165.15 334.48 168.17 334.48 171.34C334.48 174.53 338.31 177.55 344.45 179.84C345.62 180.27 346.86 180.67 348.14 181.03C349.31 177.95 350.79 174.69 352.59 171.34ZM347.28 183.59C346.83 184.88 346.45 186.14 346.18 187.37C344.39 194.91 345.08 200.8 348.77 203.29C352.46 205.77 358.19 204.2 364.46 199.69C366.36 198.34 368.32 196.72 370.25 194.86C372.25 196.72 374.18 198.34 376.04 199.69C382.14 204.07 387.7 205.66 391.42 203.52L391.76 203.3C395.45 200.82 396.17 194.92 394.31 187.38C394.03 186.16 393.69 184.9 393.28 183.6C394.59 183.22 395.83 182.81 397 182.38C404.24 179.69 408.73 175.79 408.73 171.36C408.73 166.93 404.25 163.03 397 160.34C395.83 159.89 394.59 159.49 393.28 159.12C393.69 157.83 394.04 156.57 394.31 155.36C396.17 147.82 395.45 141.91 391.76 139.44C388.11 136.96 382.34 138.51 376.03 143.03C374.17 144.37 372.24 146 370.24 147.86C368.31 146 366.34 144.38 364.45 143.03C358.17 138.51 352.45 136.96 348.76 139.44C345.07 141.91 344.38 147.82 346.17 155.36C346.44 156.57 346.82 157.83 347.27 159.12C345.96 159.5 344.72 159.9 343.54 160.34C336.23 163.03 331.75 166.93 331.75 171.36C331.75 175.79 336.23 179.69 343.54 182.38C344.72 182.79 345.96 183.21 347.28 183.59ZM372.18 192.97C374.18 190.92 376.18 188.66 378.18 186.19C382.66 185.83 386.87 185.17 390.66 184.28C391.07 185.56 391.42 186.8 391.69 188C393.28 194.4 392.9 199.24 390.24 201.02C387.62 202.8 383 201.31 377.62 197.48C375.87 196.21 374.04 194.69 372.18 192.97ZM380.39 183.26C382.56 180.35 384.56 177.31 386.39 174.17C387.7 176.76 388.84 179.29 389.74 181.71C386.87 182.38 383.76 182.91 380.39 183.26ZM387.97 171.34C389.73 168.01 391.21 164.75 392.38 161.65C393.66 162.03 394.9 162.43 396.04 162.86C402.25 165.15 406.04 168.17 406.04 171.34C406.04 174.53 402.25 177.55 396.04 179.84C394.9 180.27 393.66 180.67 392.38 181.03C391.21 177.95 389.73 174.69 387.97 171.34ZM348.79 188C349.1 186.79 349.45 185.55 349.89 184.28C353.61 185.18 357.82 185.83 362.38 186.19C364.31 188.66 366.31 190.92 368.31 192.97C366.48 194.69 364.65 196.21 362.86 197.49C357.55 201.32 352.89 202.8 350.24 201.03C347.62 199.24 347.28 194.4 348.79 188ZM350.79 181.71C351.69 179.3 352.82 176.76 354.17 174.17C355.96 177.31 357.97 180.34 360.1 183.26C356.79 182.91 353.66 182.38 350.79 181.71ZM355.66 171.34C358.04 175.58 360.8 179.74 363.77 183.58C368.08 183.86 372.46 183.86 376.81 183.58C379.78 179.72 382.5 175.6 384.88 171.34C382.5 167.08 379.78 162.96 376.81 159.11C372.46 158.82 368.09 158.82 363.77 159.11C360.76 162.96 358.04 167.08 355.66 171.34ZM372.18 149.73C374.18 151.76 376.18 154.02 378.18 156.49C382.66 156.85 386.87 157.51 390.66 158.4C391.07 157.12 391.42 155.88 391.69 154.69C393.28 148.27 392.9 143.43 390.24 141.65C387.62 139.87 383 141.36 377.62 145.2C375.87 146.48 374.04 147.99 372.18 149.73ZM389.73 160.98C388.83 163.39 387.69 165.93 386.38 168.53C384.55 165.39 382.55 162.34 380.38 159.42C383.76 159.79 386.87 160.31 389.73 160.98ZM374.49 186.41C373.08 188.07 371.7 189.62 370.25 191.05C368.87 189.62 367.42 188.07 366.04 186.41C368.87 186.53 371.69 186.53 374.49 186.41Z" fill="#1D417F"></path></g><g id="Group_57"><path id="Vector_52" fill-rule="evenodd" clip-rule="evenodd" d="M370.28 178.62C374.28 178.62 377.56 175.36 377.56 171.34C377.56 167.34 374.28 164.08 370.28 164.08C366.28 164.08 363 167.34 363 171.34C363 175.36 366.28 178.62 370.28 178.62Z" fill="#1D417F"></path></g></g><g id="Group_58"><path id="Vector_53" fill-rule="evenodd" clip-rule="evenodd" d="M465.37 304.18V307.6H468.75H468.99H468.96L469.1 307.63C469.27 307.63 469.58 307.7 469.72 307.77L470.96 304.6C470.27 304.32 469.51 304.18 468.75 304.18H465.37ZM474.33 307.63C474.74 308.49 474.95 309.42 474.95 310.39V311.7H471.57V310.39V310.18V310.04V310.07C471.5 309.73 471.43 309.48 471.29 309.14L474.33 307.63ZM474.96 315.11H471.58V318.53H474.96V315.11ZM474.96 321.91H471.58V325.29H474.96V321.91ZM474.96 328.7H471.58V332.08H474.96V328.7ZM474.96 335.5H471.58V338.88H474.96V335.5ZM474.96 342.25H471.58V345.67H474.96V342.25ZM474.96 349.08H471.58V352.46H474.96V349.08ZM474.96 355.84H471.58V359.22H474.96V355.84ZM474.96 362.64H471.58V366.05H474.96V362.64ZM474.96 369.43H471.58V372.81H474.96V369.43ZM474.96 376.23H471.58V379.64H474.96V376.23ZM474.96 383.02H471.58V386.4H474.96V383.02ZM473.78 390.61C472.81 391.92 471.47 392.75 469.92 393.06L469.3 389.71C469.58 389.64 469.85 389.57 470.13 389.43C470.27 389.36 470.41 389.26 470.55 389.15C470.69 389.01 470.83 388.87 470.96 388.7L471.03 388.6L473.78 390.61ZM466.19 393.16V389.78H462.81V393.16H466.19ZM459.43 393.16V389.78H456.02V393.16H459.43ZM452.61 393.16V389.78H449.23V393.16H452.61ZM445.85 393.16V389.78H442.44V393.16H445.85ZM439.05 393.16V389.78H435.63V393.16H439.05ZM432.26 393.16V389.78H428.88V393.16H432.26ZM425.46 393.16V389.78H422.04V393.16H425.46ZM418.67 393.16V389.78H415.29V393.16H418.67ZM411.87 393.16V389.78H408.46V393.16H411.87ZM405.08 393.16V389.78H401.7V393.16H405.08ZM398.32 393.16V389.78H394.91V393.16H398.32ZM391.49 393.16V389.78H388.11V393.16H391.49ZM384.42 393.09C382.83 392.78 381.49 391.92 380.52 390.64L383.28 388.64L383.35 388.71C383.45 388.88 383.59 389.02 383.76 389.16C383.9 389.26 384.04 389.37 384.18 389.44C384.46 389.58 384.73 389.68 385.01 389.72L384.42 393.09ZM379.32 386.47H382.73V383.06H379.32V386.47ZM379.32 379.64H382.73V376.26H379.32V379.64ZM379.32 372.88H382.73V369.47H379.32V372.88ZM379.32 366.05H382.73V362.67H379.32V366.05ZM379.32 359.29H382.73V355.91H379.32V359.29ZM379.32 352.46H382.73V349.08H379.32V352.46ZM379.32 345.7H382.73V342.32H379.32V345.7ZM379.32 338.91H382.73V335.5H379.32V338.91ZM379.32 332.11H382.73V328.73H379.32V332.11ZM379.32 325.35H382.73V321.94H379.32V325.35ZM379.32 318.53H382.73V315.15H379.32V318.53ZM379.32 311.77H382.73V310.39V310.18V310.04V310.07C382.8 309.69 382.83 309.48 383.01 309.14L379.94 307.69C379.53 308.55 379.32 309.42 379.32 310.38V311.77ZM383.32 304.59C383.84 304.31 384.94 304.17 385.49 304.17H387.28V307.59H385.49H385.28H385.31L385.17 307.62H385.2C384.99 307.62 384.68 307.69 384.51 307.76L383.32 304.59ZM390.66 304.18V307.6H394.04V304.18H390.66ZM397.49 304.18V307.6H400.87V304.18H397.49ZM404.25 304.18V307.6H407.63V304.18H404.25ZM411.05 304.18V307.6H414.46V304.18H411.05ZM417.84 304.18V307.6H421.22V304.18H417.84ZM424.63 304.18V307.6H428.01V304.18H424.63ZM431.43 304.18V307.6H434.81V304.18H431.43ZM438.19 304.18V307.6H441.61V304.18H438.19ZM445.02 304.18V307.6H448.4V304.18H445.02ZM451.78 304.18V307.6H455.16V304.18H451.78ZM458.61 304.18V307.6H461.99V304.18H458.61Z" fill="#859AC6"></path></g><g id="Group_59"><path id="Vector_54" fill-rule="evenodd" clip-rule="evenodd" d="M471.54 423.2H268.98C267.08 423.2 265.53 424.75 265.53 426.62V485.04C265.53 486.9 267.08 488.45 268.98 488.45H471.54C473.44 488.45 474.95 486.9 474.95 485.04V426.62C474.96 424.75 473.44 423.2 471.54 423.2Z" fill="#B0C2E4"></path></g><g id="Group_60"><path id="Vector_55" fill-rule="evenodd" clip-rule="evenodd" d="M349.1 333.77H270.01C267.56 333.77 265.53 335.77 265.53 338.25C265.53 340.73 267.56 342.73 270.01 342.73H349.1C351.58 342.73 353.62 340.73 353.62 338.25C353.62 335.77 351.59 333.77 349.1 333.77ZM349.1 380.88H270.01C267.56 380.88 265.53 382.88 265.53 385.36C265.53 387.81 267.56 389.84 270.01 389.84H349.1C351.58 389.84 353.62 387.8 353.62 385.36C353.62 382.88 351.59 380.88 349.1 380.88ZM349.1 357.29H270.01C267.56 357.29 265.53 359.36 265.53 361.81C265.53 364.26 267.56 366.29 270.01 366.29H349.1C351.58 366.29 353.62 364.26 353.62 361.81C353.62 359.36 351.59 357.29 349.1 357.29Z" fill="#859AC6"></path></g><g id="Group_61"><g id="Group_62"><path id="Vector_56" fill-rule="evenodd" clip-rule="evenodd" d="M585.05 240.7L578.26 244.63C575.98 245.96 575.19 248.91 576.54 251.2L578.02 253.75C579.81 256.78 579.02 258.16 578.5 258.65C576.98 260.01 575.57 261.46 574.15 262.93C573.74 263.34 572.43 264.81 568.98 262.83L566.64 261.45C564.36 260.12 561.4 260.9 560.09 263.17L556.16 269.95C554.85 272.24 555.61 275.21 557.88 276.52L560.23 277.9C563.47 279.76 563.4 280.73 562.99 282.11C562.4 283.97 561.82 285.84 561.4 287.8C561.02 289.49 561.19 290.73 556.78 290.73H554.09C551.47 290.73 549.33 292.9 549.33 295.56V303.39C549.33 306.04 551.47 308.18 554.09 308.18H556.78C561.19 308.18 561.02 309.42 561.4 311.15C561.81 313.08 562.4 314.98 562.99 316.87C563.4 318.25 563.47 319.22 560.23 321.08L557.88 322.42C555.6 323.77 554.84 326.7 556.16 328.97L560.09 335.77C561.4 338.04 564.37 338.81 566.64 337.49L568.98 336.11C572.43 334.11 573.74 335.56 574.15 336.01C575.56 337.49 576.98 338.94 578.5 340.29C579.02 340.78 579.81 342.15 578.02 345.15L576.54 347.74C575.2 350.05 575.99 352.98 578.26 354.33L585.05 358.26C587.33 359.57 590.26 358.81 591.6 356.5L593.08 353.95C594.87 350.88 596.63 350.98 597.39 351.23C599.53 351.92 601.53 352.37 603.74 352.95C604.57 353.16 605.95 353.74 605.95 357.43V360.15C605.95 362.81 608.12 364.95 610.78 364.95H618.61C621.27 364.95 623.4 362.81 623.4 360.15V357.43C623.4 353.74 624.78 353.15 625.61 352.95C627.82 352.36 629.82 351.92 631.99 351.23C632.71 350.99 634.51 350.88 636.3 353.95L637.78 356.5C639.12 358.81 642.06 359.57 644.37 358.26L651.13 354.33C653.41 352.98 654.17 350.05 652.85 347.74L651.33 345.15C649.61 342.15 650.36 340.77 650.92 340.29C652.44 338.95 653.82 337.5 655.2 336.01C655.61 335.56 656.92 334.11 660.37 336.11L662.71 337.49C664.99 338.8 667.95 338.04 669.26 335.77L673.23 328.97C674.58 326.69 673.75 323.76 671.47 322.42L669.16 321.08C665.92 319.22 666.02 318.25 666.44 316.87C666.99 314.97 667.61 313.08 667.99 311.15C668.37 309.43 668.2 308.18 672.58 308.18H675.27C677.92 308.18 680.1 306.04 680.1 303.39V295.56C680.1 292.9 677.92 290.73 675.27 290.73H672.58C668.2 290.73 668.37 289.49 667.99 287.8C667.61 285.83 666.99 283.97 666.44 282.11C666.03 280.73 665.92 279.77 669.16 277.9L671.47 276.52C673.74 275.21 674.57 272.24 673.23 269.95L669.26 263.17C667.95 260.89 664.98 260.12 662.71 261.45L660.37 262.83C656.92 264.81 655.61 263.35 655.2 262.93C653.82 261.46 652.44 260.02 650.92 258.65C650.37 258.17 649.61 256.79 651.33 253.75L652.85 251.2C654.16 248.91 653.4 245.96 651.13 244.63L644.37 240.7C642.06 239.37 639.13 240.15 637.78 242.42L636.3 244.99C634.51 248.08 632.71 247.94 631.99 247.71C629.82 247.02 627.82 246.57 625.61 245.99C624.78 245.78 623.4 245.18 623.4 241.52V238.78C623.4 236.13 621.26 233.97 618.61 233.97H610.78C608.12 233.97 605.95 236.13 605.95 238.78V241.52C605.95 245.17 604.57 245.78 603.74 245.99C601.53 246.58 599.53 247.02 597.39 247.71C596.63 247.93 594.87 248.07 593.08 244.99L591.6 242.42C590.25 240.15 587.32 239.37 585.05 240.7ZM614.71 268.74C631.68 268.74 645.41 282.52 645.41 299.49C645.41 316.46 631.68 330.19 614.71 330.19C597.71 330.19 583.95 316.46 583.95 299.49C583.94 282.52 597.7 268.74 614.71 268.74ZM614.71 261.05C635.89 261.05 653.1 278.24 653.1 299.49C653.1 320.67 635.89 337.88 614.71 337.88C593.46 337.88 576.29 320.67 576.29 299.49C576.29 278.24 593.46 261.05 614.71 261.05Z" fill="#C4D1EB"></path></g><g id="Group_63"><path id="Vector_57" fill-rule="evenodd" clip-rule="evenodd" d="M369.28 606.72C386.11 606.44 398.66 606.27 404.46 604.44C410.74 602.44 409.43 598.65 405.84 592.51C390.01 599.82 394.22 591.03 386.8 592.13C381.59 596.34 373.9 599.13 363.69 600.58C359.35 603.75 361.14 606.58 369.28 606.72Z" fill="#0E2952"></path></g><g id="Group_64"><path id="Vector_58" fill-rule="evenodd" clip-rule="evenodd" d="M390.87 350.64H494.75C496.75 350.64 498.89 352.33 499.44 354.36L517.89 424.72C518.44 426.76 517.2 428.45 515.17 428.45H411.29C409.29 428.45 407.15 426.76 406.6 424.72L388.15 354.36C387.63 352.33 388.84 350.64 390.87 350.64Z" fill="#C4D1EB"></path></g><g id="Group_65"><path id="Vector_59" fill-rule="evenodd" clip-rule="evenodd" d="M501.65 352.67L514.21 400.44C529.25 393.09 547.39 381.3 566.43 366.16C566.95 359.36 567.6 353.92 568.36 349.85C566.84 346.85 565.15 343.61 563.33 340.16C580.92 340.06 591.61 336.26 595.47 328.81C590.78 315.08 584.19 301.05 575.74 286.73C569.88 277.97 558.29 272.87 541.08 271.35C539.08 294.39 503.66 293.22 512.01 273.35C499.14 276.8 488.28 283.14 479.35 292.46C471.69 311.36 467 324.57 465.31 332.05C473.66 337.88 481.52 341.64 488.97 343.36C489.32 345.02 489.59 346.88 489.8 348.95H496.97C498.99 348.95 501.1 350.64 501.65 352.67Z" fill="#6D96CE"></path></g><g id="Group_66"><path id="Vector_60" fill-rule="evenodd" clip-rule="evenodd" d="M514.2 400.44L501.64 352.67C501.09 350.64 498.99 348.95 496.95 348.95H489.78H393.11C391.08 348.95 387.42 351.57 388.04 353.64C387.9 351.92 389.07 350.64 390.87 350.64H494.75C496.75 350.64 498.89 352.33 499.44 354.36L517.89 424.72C518.23 425.96 517.92 427.03 517.17 427.72C518.89 426.62 520.48 424.48 520.14 423.03L514.2 400.44Z" fill="#859AC6"></path></g><g id="Group_67"><path id="Vector_61" fill-rule="evenodd" clip-rule="evenodd" d="M515.17 428.44H411.29C410.94 428.44 410.53 428.41 410.19 428.27C412.26 433.65 417.85 432.82 420.05 432.82H543.18C549.87 432.54 549.66 427.85 549.77 423.37H520.18C520.28 424.78 518.77 426.68 517.18 427.72C516.69 428.17 516 428.44 515.17 428.44Z" fill="#859AC6"></path></g><g id="Group_68"><path id="Vector_62" fill-rule="evenodd" clip-rule="evenodd" d="M500.62 379.57C489.51 385.23 476.34 386.95 462.82 387.64C462.96 388.12 463.06 388.6 463.13 389.12C464.06 394.81 460.03 399.71 454.2 399.71C448.75 399.71 443.78 395.36 442.92 389.95C442.82 389.36 442.78 388.81 442.82 388.26C428.75 388.61 415.16 389.36 403.92 393.78L411.65 423.2H512.08L500.62 379.57Z" fill="#9DB2D9"></path></g><g id="Group_69"><path id="Vector_63" fill-rule="evenodd" clip-rule="evenodd" d="M451.99 382.81C455.68 382.81 459.16 385.81 459.79 389.54C460.34 393.26 457.82 396.27 454.1 396.27C450.38 396.27 446.89 393.27 446.27 389.54C445.71 385.81 448.23 382.81 451.99 382.81Z" fill="#9DB2D9"></path></g><g id="Group_70"><path id="Vector_64" fill-rule="evenodd" clip-rule="evenodd" d="M571.46 411.3C569.39 404.99 567.87 398.44 566.98 391.64C552.98 397.06 537.01 402.26 516.76 410.26L519.52 420.68C550.07 421.65 567.39 418.55 571.46 411.3Z" fill="#6D96CE"></path></g><g id="Group_71"><path id="Vector_65" fill-rule="evenodd" clip-rule="evenodd" d="M516.76 410.27C537.01 402.27 552.97 397.06 566.98 391.65C579.33 386.89 590.09 381.96 600.78 374.85C600.37 361.16 598.3 347.91 592.64 332.53C587.43 337.53 577.67 340.05 563.33 340.15C567.47 347.98 570.85 354.77 573.47 360.46C551.91 378.33 531.12 392.19 514.22 400.43L516.76 410.27Z" fill="#F9AF79"></path></g><g id="Group_72"><path id="Vector_66" fill-rule="evenodd" clip-rule="evenodd" d="M467.99 333.84C466.44 339.29 464.99 344.32 463.65 348.95H489.79C489.58 346.88 489.31 345.02 488.96 343.36C482.34 341.84 475.33 338.67 467.99 333.84Z" fill="#F9AF79"></path></g><g id="Group_73"><path id="Vector_67" fill-rule="evenodd" clip-rule="evenodd" d="M404.6 586.99C420.05 530.98 425.57 491.59 421.16 468.93C429.92 470.17 438.75 470.59 447.61 470.1C446.27 464.06 444.92 457.99 443.54 451.82C443.71 443.44 447.95 437.27 463.1 432.82H420.06C418.61 432.82 415.61 433.17 413.16 431.85C399.3 435.78 392.54 442.33 390.22 450.34C388.53 472.27 393.08 497.31 389.19 587.12C394.04 587.65 399.15 587.61 404.6 586.99Z" fill="#20386F"></path></g><g id="Group_74"><path id="Vector_68" fill-rule="evenodd" clip-rule="evenodd" d="M420.74 432.82H420.05C418.6 432.82 415.6 433.17 413.15 431.85C399.29 435.78 392.53 442.33 390.21 450.34C388.52 472.27 393.07 497.31 389.18 587.12C392.08 587.47 395.08 587.53 398.18 587.47C406.15 556.22 425.15 479.65 403.77 446.61C408.77 441.31 414.43 436.72 420.74 432.82Z" fill="#1D417F"></path></g><g id="head02"><g id="Group_75"><path id="Vector_69" fill-rule="evenodd" clip-rule="evenodd" d="M541.04 271.55C538.28 268.05 535.87 264.81 535.18 262.5C535.73 260.91 536.28 258.91 536.9 256.5C547.21 249.5 548.63 244.33 541.14 240.96C539.62 241.81 537.76 244.41 535.52 248.79C533.73 248.72 532.35 247.79 531.45 246.05C533.59 238.67 534.97 232.69 535.59 228.08C530.52 220.54 518.62 219.46 502.89 221.49C502.2 225.68 501.58 230.11 501.13 234.8C498.34 237.35 498.68 246.85 501.27 257.81C499.99 264.02 503.82 267.43 512.79 268C512.93 270.17 512.06 273 512 273.35C512 273.38 512 273.42 511.97 273.42C503.79 293.14 538.83 294.38 541.04 271.55Z" fill="#F9AF79"></path></g><g id="Group_76"><path id="Vector_70" fill-rule="evenodd" clip-rule="evenodd" d="M502.89 221.49C518.62 219.46 530.51 220.54 535.59 228.08C534.97 232.68 533.59 238.67 531.45 246.05C532.35 247.79 533.73 248.72 535.52 248.79C537.76 244.41 539.63 241.81 541.14 240.96C548.62 244.32 547.21 249.5 536.9 256.5C536.28 258.92 535.73 260.91 535.18 262.5C544.42 260.41 552.22 252.12 553.32 248.53C564.12 227.22 552.04 218.21 545.59 214.92C542.76 193.81 512.07 212.47 496.72 202.3C490.61 210.73 498.17 221.3 502.89 221.49Z" fill="#20386F"></path></g><g id="Group_77"><g id="Group_87"><path id="Vector_81" fill-rule="evenodd" clip-rule="evenodd" d="M517.45 227.77C522.11 226.73 530.11 231.75 527.52 232.27C526.66 232.44 524.28 231.01 523.38 230.75C521.52 230.25 518 230.51 517 229.3C516.58 228.82 516.86 227.89 517.45 227.77Z" fill="#20386F"></path></g><g id="Group_88"><path id="Vector_82" fill-rule="evenodd" clip-rule="evenodd" d="M510.34 229.23C509.37 230.42 505.82 230.16 503.99 230.68C503.09 230.92 500.68 232.35 499.85 232.18C497.23 231.65 505.27 226.61 509.92 227.68C510.55 227.84 510.75 228.75 510.34 229.23Z" fill="#20386F"></path></g><g id="Group_89"><path id="Vector_83" fill-rule="evenodd" clip-rule="evenodd" d="M521.62 238.91C522.96 238.91 524 233.79 520.76 233.79C519 233.78 519.41 238.91 521.62 238.91Z" fill="#20386F"></path></g><g id="Group_90"><path id="Vector_84" fill-rule="evenodd" clip-rule="evenodd" d="M504.82 238.96C503.44 238.96 502.41 233.82 505.68 233.82C507.44 233.82 507.03 238.96 504.82 238.96Z" fill="#20386F"></path></g><g id="Group_91"><path id="Vector_85" fill-rule="evenodd" clip-rule="evenodd" d="M510.31 247.62C510.62 247.14 509.72 246.76 509.24 246.41C507.31 245.17 506.82 246.13 511.07 237.75C511.9 236.11 512.55 235.3 511.93 235.01C511.38 234.77 511.27 235.49 510.34 237.37C505.72 246.49 506.13 245.32 509.72 247.72C509.93 247.86 510.2 247.81 510.31 247.62Z" fill="#ED7D57"></path></g><g id="Group_92"><path id="Vector_86" fill-rule="evenodd" clip-rule="evenodd" d="M516.62 255.29C517.17 254.29 515.72 254.56 506.89 253.63C504.27 253.36 512.03 263.64 516.62 255.29Z" fill="#ED7D57"></path></g><path id="Vector_71" fill-rule="evenodd" clip-rule="evenodd" d="M524.41 267.71C520.1 268.07 516.2 268.16 512.79 268C512.89 269.52 512.48 271.35 512.2 272.41C517.79 272.24 521.86 270.69 524.41 267.71Z" fill="#ED7D57"></path></g></g><g id="Group_78"><path id="Vector_72" fill-rule="evenodd" clip-rule="evenodd" d="M476.96 466.14H570.63C573.98 466.14 576.7 468.9 576.7 472.21C576.7 475.59 573.98 478.31 570.63 478.31H476.96C473.58 478.31 470.82 475.59 470.82 472.21C470.82 468.9 473.58 466.14 476.96 466.14Z" fill="#9C7357"></path></g><g id="Group_79"><path id="Vector_73" fill-rule="evenodd" clip-rule="evenodd" d="M565.04 581.47C560.56 576.99 554.35 574.16 547.56 574.16H531.45H500C493.17 574.16 487 576.99 482.55 581.47C478.07 585.92 475.27 592.09 475.27 598.92V603.89H473.37V610.1H475.27H485.51H487.41V603.89H485.51V598.92C485.51 594.92 487.1 591.33 489.75 588.68C492.41 586.03 495.99 584.44 499.99 584.44H531.44H547.55C551.55 584.44 555.17 586.03 557.79 588.68C560.41 591.34 562.07 594.92 562.07 598.92V603.89H560.14V610.1H562.07H572.28H574.21V603.89H572.28V598.92C572.28 592.1 569.52 585.92 565.04 581.47Z" fill="#D0A382"></path></g><g id="Group_80"><path id="Vector_74" d="M528.9 478.32H518.69V574.17H528.9V478.32Z" fill="#D0A382"></path></g><g id="Group_81"><path id="Vector_75" fill-rule="evenodd" clip-rule="evenodd" d="M556.56 465.76C574.7 459.24 577.12 441.2 569.18 413.92C562.63 419.3 546.07 421.54 519.51 420.68L520.13 423.02C520.13 423.12 520.16 423.23 520.16 423.37H549.75C549.65 427.85 549.85 432.54 543.16 432.82H463.08C447.94 437.27 443.7 443.44 443.52 451.82C453.07 494.62 461.63 533.91 473.21 588.16C477.14 590.37 482.52 590.2 489.28 587.68C494.73 535.05 493.25 496.77 484.8 472.86C507.24 472.97 531.17 469.9 556.56 465.76Z" fill="#1D417F"></path></g><g id="Group_82"><path id="Vector_76" fill-rule="evenodd" clip-rule="evenodd" d="M556.56 465.76C574.7 459.24 577.12 441.2 569.18 413.92C567.8 415.06 565.94 416.06 563.63 416.92C570.22 444.96 563.05 460.27 541.77 461.79C516.94 465.45 496.35 467.24 480 467.1C487.17 513.8 488.42 554.53 483.69 589.3C485.45 588.95 487.31 588.4 489.31 587.68C494.76 535.05 493.28 496.77 484.83 472.86C507.24 472.97 531.17 469.9 556.56 465.76Z" fill="#20386F"></path></g><g id="Group_83"><path id="Vector_77" fill-rule="evenodd" clip-rule="evenodd" d="M390.8 587.3C390.35 588.99 389.63 590.58 388.59 592.06C393.45 592.51 391.59 598.79 404.7 593.06C404.12 591.4 403.84 589.41 403.77 587.06C399.22 587.54 394.94 587.61 390.8 587.3Z" fill="#F9AF79"></path></g><g id="Group_84"><path id="Vector_78" fill-rule="evenodd" clip-rule="evenodd" d="M473.3 616.58C482.2 612.86 483.58 606.85 488.48 604.58C493.41 602.3 493.96 598.16 489.13 593.72C485.58 596.58 481.16 600.1 478.82 598.24C477.23 597 471.92 597.07 470.89 598.86C466.27 609.62 459.82 606.21 458.54 611.1C458.4 617.62 467.68 618.86 473.3 616.58Z" fill="#0E2952"></path></g><g id="Group_85"><path id="Vector_79" fill-rule="evenodd" clip-rule="evenodd" d="M474.82 588.89C474.89 591.75 474.51 594.62 473.65 597.48C475.58 597.2 477.86 597.48 478.82 598.24C480.96 599.96 484.96 597.07 488.34 594.38C487.79 592.79 487.44 590.83 487.24 588.38C482.23 589.96 478.09 590.1 474.82 588.89Z" fill="#F9AF79"></path></g><g id="Group_86"><path id="Vector_80" fill-rule="evenodd" clip-rule="evenodd" d="M563.32 340.15C561.01 335.98 558.56 330.39 556.01 323.32C557.39 331.53 557.32 337.43 559.53 344.19C557.74 353.78 556.98 363.5 557.19 373.3C560.26 371.02 563.33 368.64 566.43 366.16C566.95 359.36 567.6 353.92 568.36 349.85C566.84 346.84 565.15 343.6 563.32 340.15ZM483.61 341.81C485.44 342.46 487.23 342.95 488.96 343.36C488.3 332.91 487.86 324.29 487.65 317.46C485.65 327.53 484.3 335.63 483.61 341.81ZM571.46 411.3C569.39 404.99 567.87 398.44 566.98 391.64C564.39 392.64 561.74 393.64 558.98 394.68C560.08 402.06 561.67 409.51 563.67 416.93C567.56 415.44 570.15 413.58 571.46 411.3Z" fill="#466FB5"></path></g></g><g id="Group_101"><path id="Vector_94" fill-rule="evenodd" clip-rule="evenodd" d="M200.7 90.22H227.46C230.56 90.22 233.12 92.77 233.12 95.89V108.51C233.12 111.65 230.57 114.2 227.46 114.2H222.98L209.15 124.55L212.22 114.2H200.7C197.56 114.2 195.01 111.65 195.01 108.51V95.9C195 92.77 197.56 90.22 200.7 90.22Z" fill="#1D417F"></path></g><g id="Group_102"><path id="Vector_95" fill-rule="evenodd" clip-rule="evenodd" d="M203.49 100.74C204.63 100.74 205.56 101.67 205.56 102.83C205.56 103.97 204.63 104.9 203.49 104.9C202.35 104.9 201.42 103.97 201.42 102.83C201.42 101.67 202.35 100.74 203.49 100.74ZM224.63 100.74C225.77 100.74 226.7 101.67 226.7 102.83C226.7 103.97 225.77 104.9 224.63 104.9C223.49 104.9 222.56 103.97 222.56 102.83C222.56 101.67 223.49 100.74 224.63 100.74ZM217.59 100.74C218.73 100.74 219.66 101.67 219.66 102.83C219.66 103.97 218.73 104.9 217.59 104.9C216.42 104.9 215.52 103.97 215.52 102.83C215.53 101.67 216.42 100.74 217.59 100.74ZM210.52 100.74C211.66 100.74 212.59 101.67 212.59 102.83C212.59 103.97 211.66 104.9 210.52 104.9C209.38 104.9 208.48 103.97 208.48 102.83C208.49 101.67 209.39 100.74 210.52 100.74Z" fill="white"></path></g><g id="Group_103"><path id="Vector_96" fill-rule="evenodd" clip-rule="evenodd" d="M174.07 102.52C170.41 104.43 166.69 105.3 162.83 105.3C149.41 105.3 138.55 94.44 138.55 81.04C138.55 67.64 149.41 56.78 162.83 56.78C176.21 56.78 187.08 67.64 187.08 81.04C187.08 86.97 184.98 92.35 181.46 96.58L192.57 111.05C167.38 99.45 182.45 106.38 174.07 102.52Z" fill="#C4D1EB"></path></g><g id="Group_104"><path id="Vector_97" fill-rule="evenodd" clip-rule="evenodd" d="M177.55 90.91H148.8C152.28 85.2 154.08 81.22 159.58 79.99C157.23 78.73 155.65 76.23 155.65 73.37C155.65 69.21 159.03 65.83 163.17 65.83C167.34 65.83 170.72 69.21 170.72 73.37C170.72 76.23 169.1 78.73 166.75 79.99C172.28 81.22 174.07 85.2 177.55 90.91Z" fill="white"></path></g><g id="Group_105"><path id="Vector_98" fill-rule="evenodd" clip-rule="evenodd" d="M587.05 136.16H613.81C616.91 136.16 619.47 138.73 619.47 141.83V154.47C619.47 157.59 616.92 160.14 613.81 160.14H609.33L595.5 170.5L598.57 160.14H587.05C583.91 160.14 581.36 157.59 581.36 154.47V141.83C581.35 138.73 583.91 136.16 587.05 136.16Z" fill="#1D417F"></path></g><g id="Group_106"><path id="Vector_99" fill-rule="evenodd" clip-rule="evenodd" d="M589.84 146.7C590.98 146.7 591.91 147.63 591.91 148.77C591.91 149.91 590.98 150.84 589.84 150.84C588.7 150.84 587.77 149.91 587.77 148.77C587.77 147.63 588.7 146.7 589.84 146.7ZM610.98 146.7C612.12 146.7 613.05 147.63 613.05 148.77C613.05 149.91 612.12 150.84 610.98 150.84C609.84 150.84 608.91 149.91 608.91 148.77C608.91 147.63 609.84 146.7 610.98 146.7ZM603.94 146.7C605.04 146.7 606.01 147.63 606.01 148.77C606.01 149.91 605.04 150.84 603.94 150.84C602.77 150.84 601.87 149.91 601.87 148.77C601.88 147.63 602.77 146.7 603.94 146.7ZM596.88 146.7C598.02 146.7 598.95 147.63 598.95 148.77C598.95 149.91 598.02 150.84 596.88 150.84C595.74 150.84 594.84 149.91 594.84 148.77C594.84 147.63 595.74 146.7 596.88 146.7Z" fill="white"></path></g><g id="Group_107"><path id="Vector_100" fill-rule="evenodd" clip-rule="evenodd" d="M560.42 148.48C556.76 150.39 553.04 151.26 549.14 151.26C535.76 151.26 524.89 140.4 524.89 127C524.89 113.6 535.75 102.74 549.14 102.74C562.56 102.74 573.39 113.61 573.39 127C573.39 132.93 571.32 138.3 567.8 142.54L578.87 156.99C553.73 145.41 568.8 152.34 560.42 148.48Z" fill="#1D417F"></path></g><g id="Group_108"><path id="Vector_101" fill-rule="evenodd" clip-rule="evenodd" d="M563.9 136.87H535.17C538.62 131.16 540.41 127.18 545.93 125.95C543.58 124.67 542 122.19 542 119.33C542 115.16 545.38 111.79 549.52 111.79C553.69 111.79 557.07 115.15 557.07 119.33C557.07 122.19 555.45 124.68 553.11 125.95C558.63 127.18 560.42 131.16 563.9 136.87Z" fill="white"></path></g><g id="Group_109"><g id="Group_110"><path id="Vector_102" fill-rule="evenodd" clip-rule="evenodd" d="M629.95 342.98C624.36 360.19 620.16 399.16 619.67 459.86C618.77 489.38 623.91 528.49 630.5 579.85C635.95 582.16 643.88 582.51 649.88 582.16C656.85 510.83 658.02 480.62 653.4 460.96C662.85 439.89 668.37 419.12 673.54 397.36C677.16 427.57 681.41 451.54 686.34 469.3C697.24 497.68 713.38 534.9 734.8 580.87C739.73 581.52 748.53 580.04 753.63 576.7C742.87 526.14 735.18 473.68 718.38 464.16C729.59 401.29 722.86 364.73 710.38 341.89C678.37 346.26 651.61 346.6 629.95 342.98Z" fill="#0E2952"></path></g><g id="Group_111"><path id="Vector_103" fill-rule="evenodd" clip-rule="evenodd" d="M622.64 238.51C619.61 283.79 628.92 279.79 629.95 342.98C646.09 345.7 665.06 346.19 686.89 344.46C685.61 350.53 684.58 355.98 683.82 360.12C688.37 359.98 695.41 359.71 700.38 366.12C704.86 358.67 708.8 351.77 712.17 345.36C722.86 325.04 728.21 309.59 729.76 296.76C739.62 220.97 721 196.67 675.54 196.31C672.75 203.78 656.5 208.95 651.71 208.61C648.33 206.73 646.64 201.42 643.81 196.49C630.08 199.32 616.42 207.15 608.97 213.63C615.35 202.89 620.56 192.26 624.53 181.76C623.05 177.09 619.15 173.41 612.84 170.74C565.42 213.04 548.9 239.27 563.31 249.38C578.53 255.13 598.29 251.51 622.64 238.51Z" fill="#6D96CE"></path></g><g id="Group_112"><path id="Vector_104" fill-rule="evenodd" clip-rule="evenodd" d="M611.46 600.75C626.98 601.47 640.33 602.3 646.16 601.06C652.99 599.61 650.71 595.61 647.5 589.27C641.46 591.27 635.33 590.75 629.19 587.75C623.95 591.47 616.36 593.72 606.43 594.47C602.08 597.27 603.6 600.13 611.46 600.75ZM737.63 603.17C746.29 600.72 754.25 598.31 757.5 596.13C762.19 592.99 759.64 590.03 755.16 585.33C749.92 588.99 743.92 590.26 737.19 589.19C732.43 595.95 716.94 593.12 715.43 597.74C713.48 606.37 733.49 604.31 737.63 603.17Z" fill="#0E2952"></path></g><g id="Group_113"><path id="Vector_105" fill-rule="evenodd" clip-rule="evenodd" d="M686.89 344.46C690.24 328.66 695.37 308.52 702.44 295.69C699.27 282.34 698.99 265.44 699.89 249.39C696.48 261.32 693.96 278.03 695.06 295.69C689.2 308.83 685.27 325.35 682.78 344.73C684.13 344.67 685.51 344.57 686.89 344.46ZM598.64 229.56C608.23 217.32 617.75 208.16 627.2 202.14C619.82 205.59 613.33 209.83 608.99 213.63C605.81 218.9 602.36 224.23 598.64 229.56Z" fill="#466FB5"></path></g><g id="Group_114"><path id="Vector_106" fill-rule="evenodd" clip-rule="evenodd" d="M651.71 208.61C656.51 208.95 672.75 203.78 675.54 196.31C672.3 191.5 670.37 186.05 669.99 183.03C670.78 181.62 671.68 179.81 672.64 177.6C683.61 172.58 685.78 167.87 679.19 163.44C677.6 164.01 675.39 166.2 672.57 169.99C670.85 169.64 669.71 168.54 669.12 166.73C672.33 160.02 674.64 154.54 675.98 150.24C672.36 142.2 661.18 139.25 645.87 138.65C644.49 142.53 643.18 146.67 641.97 151.07C638.9 153.05 637.73 162.19 638.39 173.06C636.15 178.78 639.25 182.65 647.74 184.65C647.46 187.43 645.6 194.27 643.81 196.48C646.64 201.42 648.33 206.73 651.71 208.61Z" fill="#FAB688"></path></g><g id="Group_115"><path id="Vector_107" fill-rule="evenodd" clip-rule="evenodd" d="M645.88 138.66C661.19 139.26 672.37 142.21 675.99 150.25C674.64 154.54 672.34 160.03 669.13 166.74C669.72 168.55 670.85 169.65 672.58 170C675.41 166.21 677.61 164.02 679.2 163.45C685.79 167.88 683.61 172.59 672.65 177.61C671.69 179.82 670.79 181.63 670 183.04C679.21 182.56 687.97 175.9 689.55 172.66C703.35 154.05 693.28 143.5 687.65 139.33C688.38 118.7 656.06 131.55 643.06 119.34C635.85 126.4 641.33 137.72 645.88 138.66Z" fill="#0E2952"></path></g><g id="Group_116"><path id="Vector_108" fill-rule="evenodd" clip-rule="evenodd" d="M659.47 183.93C656.68 184.5 651.54 185.08 647.74 184.65C647.6 186.15 646.98 188.87 646.15 191.39C650.3 191.12 657.41 186.59 659.47 183.93Z" fill="#ED7D57"></path></g><g id="Group_117"><path id="Vector_109" fill-rule="evenodd" clip-rule="evenodd" d="M737.35 581.03C738.25 583.68 738.59 586.48 738.42 589.38C743.97 590.03 748.97 589.04 753.46 586.41C752.15 583.92 751.15 581.27 750.53 578.37C746.42 580.09 741.32 581.03 737.35 581.03ZM646.16 589.68C645.88 587.13 645.78 584.64 645.88 582.26C641.57 582.26 636.84 581.88 632.98 580.71C632.57 583.92 631.67 586.43 630.39 588.3C635.68 590.61 640.95 591.06 646.16 589.68Z" fill="#FAB688"></path></g><g id="Group_118"><path id="Vector_110" fill-rule="evenodd" clip-rule="evenodd" d="M684.38 360.09C682.45 367.02 681.14 373.78 680.45 380.33C684.07 389.68 688.52 394.88 693.76 395.96C699.76 395.44 700.93 390.82 702.31 387.58C698.76 384.82 696.65 381.51 696.03 377.68C699.27 375.09 700.1 372.4 698.51 369.57C699.06 368.19 699.61 366.88 700.1 365.78C695.38 359.98 688.86 359.98 684.38 360.09Z" fill="#FAB688"></path></g><g id="Group_119"><g id="Group_120"><path id="Vector_111" fill-rule="evenodd" clip-rule="evenodd" d="M658.3 158.15C659.34 158.48 661.4 154.86 658.92 154.05C657.61 153.61 656.64 157.6 658.3 158.15Z" fill="#20386F"></path></g><g id="Group_121"><path id="Vector_112" fill-rule="evenodd" clip-rule="evenodd" d="M646.2 154.05C647.27 154.26 648.92 150.43 646.37 149.89C644.99 149.61 644.47 153.68 646.2 154.05Z" fill="#20386F"></path></g><g id="Group_122"><path id="Vector_113" fill-rule="evenodd" clip-rule="evenodd" d="M646.23 163.25L646.2 163.22C645.1 162.25 644.51 161.7 644.54 161.1C644.57 160.53 645.06 160.19 645.95 159.51C646.92 158.77 648.43 157.63 650.36 155.49C650.5 155.33 650.74 155.32 650.91 155.46C651.05 155.62 651.05 155.86 650.91 155.99C648.91 158.2 647.39 159.35 646.39 160.11C645.81 160.54 645.29 160.94 645.29 161.13C645.29 161.39 646.09 162.1 646.7 162.65C646.84 162.79 646.84 163.03 646.7 163.18C646.61 163.34 646.4 163.36 646.23 163.25Z" fill="#ED7D57"></path></g><g id="Group_123"><path id="Vector_114" fill-rule="evenodd" clip-rule="evenodd" d="M648.47 149.04C648.99 149.14 649.54 149.07 649.88 148.8C650.84 148.11 649.95 147.09 648.98 146.56C647.12 145.51 644.36 145.77 642.15 146.51C641.67 146.67 641.67 147.34 642.15 147.49C643.16 147.87 645.06 148.39 648.47 149.04Z" fill="#20386F"></path></g><g id="Group_124"><path id="Vector_115" fill-rule="evenodd" clip-rule="evenodd" d="M659.75 153.13C659.34 152.9 658.92 152.53 658.79 152.08C658.44 150.98 659.75 150.68 660.82 150.84C662.99 151.1 664.99 152.94 666.37 154.86C666.65 155.26 666.23 155.81 665.75 155.67C664.72 155.36 662.92 154.67 659.75 153.13Z" fill="#20386F"></path></g><g id="Group_125"><path id="Vector_116" fill-rule="evenodd" clip-rule="evenodd" d="M652.65 170.34C648.44 169.93 646.16 169.25 642.16 167.86C640.57 167.29 642.57 180.24 652.78 171.03C653.06 170.81 652.99 170.36 652.65 170.34Z" fill="#ED7D57"></path></g><g id="Group_126"><path id="Vector_117" fill-rule="evenodd" clip-rule="evenodd" d="M652.33 170.51C653.61 172.22 643.95 171.27 642.43 169.56C642.29 169.39 641.81 168.44 642.01 168.2C642.25 167.94 643.32 168.54 643.6 168.66C646.47 169.72 649.19 170.31 652.33 170.51Z" fill="white"></path></g></g><g id="Group_127"><path id="Vector_118" fill-rule="evenodd" clip-rule="evenodd" d="M635.19 135.54L645.02 141.13C643.95 144.29 642.91 147.6 641.98 151.08C639.19 152.87 637.95 160.51 638.26 169.96L632.91 179.36L615.8 169.63L635.19 135.54Z" fill="#466FB5"></path></g><g id="Group_128"><path id="Vector_119" fill-rule="evenodd" clip-rule="evenodd" d="M636.23 136.11L645.03 141.13C643.96 144.29 642.92 147.6 641.99 151.08C639.2 152.87 637.96 160.51 638.27 169.96L633.61 178.17L617.5 169.01L636.23 136.11Z" fill="#6D96CE"></path></g><g id="Group_129"><path id="Vector_120" fill-rule="evenodd" clip-rule="evenodd" d="M622.54 157.77C615.78 157.43 616.64 164.44 615.09 171.77C619.54 174.05 622.51 176.93 624.02 180.41C626.16 178.87 628.16 178.89 629.78 177.74L626.4 175.81L615.81 169.64L619.91 162.42L629.81 158.66C629.39 157.5 628.19 157.18 626.08 157.47L622.54 157.77Z" fill="#FAB688"></path></g></g><g id="Group_130"><g id="Group_131"><path id="Vector_121" fill-rule="evenodd" clip-rule="evenodd" d="M809.47 621.69C843.96 621.69 872.1 616.07 872.1 609.2C872.1 602.34 843.96 596.71 809.47 596.71C774.95 596.71 746.84 602.33 746.84 609.2C746.84 616.07 774.94 621.69 809.47 621.69Z" fill="#C4D1EB"></path></g><g id="Group_139"><g id="Group_132"><path id="Vector_122" fill-rule="evenodd" clip-rule="evenodd" d="M818.54 485.87C818.33 485.04 818.85 484.21 819.71 484.01C820.54 483.8 821.37 484.35 821.57 485.18C824.12 496.32 824.26 507.77 821.43 519.67C818.6 531.5 812.81 543.74 803.5 556.51C802.95 557.2 801.98 557.34 801.29 556.86C800.6 556.34 800.46 555.34 800.95 554.65C810.05 542.23 815.71 530.37 818.44 518.95C821.16 507.53 820.99 496.56 818.54 485.87Z" fill="#1B2452"></path></g><g id="Group_133"><path id="Vector_123" fill-rule="evenodd" clip-rule="evenodd" d="M790.09 411.03C785.78 443.31 796.06 471.8 820.75 496.49C841.85 461.59 794.4 451.17 790.09 411.03Z" fill="#859AC6"></path></g><g id="Group_134"><path id="Vector_124" fill-rule="evenodd" clip-rule="evenodd" d="M801.43 527.33C801.36 526.5 801.98 525.74 802.81 525.67C803.67 525.57 804.47 526.19 804.53 527.05C804.88 530.84 804.94 536.29 804.67 542.47C804.39 547.85 803.84 553.78 802.95 559.68C802.81 560.51 801.99 561.09 801.16 560.99C800.33 560.85 799.71 560.02 799.85 559.2C800.75 553.44 801.3 547.61 801.57 542.33C801.85 536.26 801.78 530.98 801.43 527.33Z" fill="#1B2452"></path></g><g id="Group_135"><path id="Vector_125" fill-rule="evenodd" clip-rule="evenodd" d="M803.29 530.29C818.19 503.22 807.5 477.66 771.15 453.59C790.36 481.45 801.09 507.01 803.29 530.29Z" fill="#C4D1EB"></path></g><g id="Group_136"><path id="Vector_126" fill-rule="evenodd" clip-rule="evenodd" d="M803.29 530.29C801.08 507.01 790.36 481.45 771.15 453.59C782.53 491.52 757.8 505.56 803.29 530.29Z" fill="#859AC6"></path></g><g id="Group_137"><path id="Vector_127" fill-rule="evenodd" clip-rule="evenodd" d="M802.54 558.23C802.54 559.06 801.88 559.78 801.02 559.82C800.16 559.85 799.43 559.2 799.43 558.3C799.29 554.3 798.4 550.3 797.19 546.71C795.29 540.99 792.67 536.29 791.43 534.29C790.95 533.53 791.19 532.57 791.91 532.12C792.67 531.67 793.6 531.88 794.05 532.64C795.36 534.78 798.12 539.71 800.12 545.75C801.43 549.61 802.4 553.88 802.54 558.23Z" fill="#1B2452"></path></g><g id="Group_138"><path id="Vector_128" fill-rule="evenodd" clip-rule="evenodd" d="M759.77 537.29C769.15 558.91 789.29 532.6 796.47 536.98C794.33 532.08 791.3 528.6 787.92 526.84C777.98 521.63 769.77 539.71 759.77 537.29Z" fill="#859AC6"></path></g><g id="Group_140"><path id="Vector_129" fill-rule="evenodd" clip-rule="evenodd" d="M835.51 479.63C836.03 478.94 835.86 477.94 835.17 477.46C834.48 476.98 833.51 477.11 833 477.81C826.24 487.05 821.58 497.47 819.48 509.54C817.41 521.54 817.93 535.06 821.45 550.45C821.66 551.31 822.49 551.83 823.31 551.62C824.17 551.45 824.69 550.58 824.48 549.76C821.03 534.79 820.55 521.65 822.55 510.06C824.54 498.49 829.02 488.49 835.51 479.63Z" fill="#1B2452"></path></g><g id="Group_141"><path id="Vector_130" fill-rule="evenodd" clip-rule="evenodd" d="M833.09 480.52C858.61 456.69 869.79 428.54 866.61 396.19C887.86 437.58 876.69 465.69 833.09 480.52Z" fill="#C4D1EB"></path></g><g id="Group_142"><path id="Vector_131" fill-rule="evenodd" clip-rule="evenodd" d="M866.62 396.2C869.79 428.55 858.62 456.69 833.1 480.53C813.16 444.96 860.96 436.13 866.62 396.2Z" fill="#859AC6"></path></g><g id="Group_143"><path id="Vector_132" fill-rule="evenodd" clip-rule="evenodd" d="M834.85 524.5C835.23 523.74 834.95 522.78 834.23 522.36C833.47 521.95 832.54 522.22 832.13 522.98C830.3 526.29 828.06 531.29 825.92 537.12C824.06 542.16 822.19 547.81 820.71 553.61C820.5 554.44 821.02 555.27 821.85 555.47C822.68 555.68 823.51 555.19 823.71 554.37C825.16 548.71 826.95 543.16 828.82 538.19C830.96 532.5 833.09 527.67 834.85 524.5Z" fill="#1B2452"></path></g><g id="Group_144"><path id="Vector_133" fill-rule="evenodd" clip-rule="evenodd" d="M831.92 526.43C828.95 495.7 848.89 476.42 891.79 468.62C863.13 486.66 843.17 505.94 831.92 526.43Z" fill="#C4D1EB"></path></g><g id="Group_145"><path id="Vector_134" fill-rule="evenodd" clip-rule="evenodd" d="M831.92 526.43C843.16 505.94 863.13 486.66 891.79 468.62C866.34 499.04 883.52 521.67 831.92 526.43Z" fill="#859AC6"></path></g><g id="Group_146"><path id="Vector_135" fill-rule="evenodd" clip-rule="evenodd" d="M821.64 552.43C821.3 553.19 821.64 554.12 822.4 554.46C823.19 554.84 824.12 554.49 824.47 553.74C826.16 550.08 828.61 546.77 831.09 543.94C835.09 539.46 839.37 536.15 841.3 534.77C841.99 534.29 842.2 533.32 841.72 532.63C841.24 531.91 840.24 531.73 839.51 532.22C837.47 533.67 833.03 537.12 828.78 541.88C826.09 544.92 823.51 548.5 821.64 552.43Z" fill="#1B2452"></path></g><g id="Group_147"><path id="Vector_136" fill-rule="evenodd" clip-rule="evenodd" d="M869.17 550.02C852.03 566.23 843.92 534.09 835.61 535.26C839.51 531.64 843.65 529.6 847.47 529.33C858.62 528.5 859.03 548.3 869.17 550.02Z" fill="#859AC6"></path></g></g><g id="Group_148"><path id="Vector_137" fill-rule="evenodd" clip-rule="evenodd" d="M849.03 551.95V580.13C849.03 597.89 834.48 612.45 816.68 612.45H791.16C773.36 612.45 758.81 597.9 758.81 580.13V551.95H849.03Z" fill="#C4D1EB"></path></g><g id="Group_149"><path id="Vector_138" fill-rule="evenodd" clip-rule="evenodd" d="M839.85 602.58C795.77 616.79 774.56 597.27 778.77 551.95H758.8V580.13C758.8 597.89 773.36 612.45 791.15 612.45H816.67C825.78 612.44 833.99 608.65 839.85 602.58Z" fill="#859AC6"></path></g></g></g></svg> 